<svg xmlns="http://www.w3.org/2000/svg" version="1.2"><font><font-face font-family="Univers LT Std" ascent="724" descent="-276" font-style="italic" font-weight="950" slope="-12" cap-height="724" x-height="498" underline-position="-75" underline-thickness="50"/><glyph glyph-name="NULL"/><glyph glyph-name="CR" horiz-adv-x="250"/><glyph glyph-name="space" horiz-adv-x="352"/><glyph glyph-name="exclam" unicode="!" horiz-adv-x="370" d="M130 211h200l151 511H195l-65-511zM64 0h242l35 164H99L64 0z"/><glyph glyph-name="quotedbl" unicode="&quot;" horiz-adv-x="592" d="M415 422h182l63 300H478l-63-300zm-240 0h182l63 300H238l-63-300z"/><glyph glyph-name="numbersign" unicode="#" horiz-adv-x="704" d="M412 410h67l-34-98h-67l34 98zM146 0h124l67 194h67L337 0h124l67 194h88l25 118h-72l34 98h88l25 118h-72l67 194H587l-66-194h-67l66 194H396l-66-194h-88l-25-118h72l-35-98h-88l-25-118h72L146 0z"/><glyph glyph-name="dollar" unicode="$" horiz-adv-x="704" d="M254-115h148l20 96C591 1 718 77 751 232c19 87-7 152-90 190-55 25-139 44-203 63-46 14-54 30-49 52s27 40 72 40c42 0 59-19 53-60h256c31 148-61 209-206 224l20 96H456l-20-96c-163-27-268-107-295-235-23-104 23-166 105-192l194-61c25-8 42-25 38-48-7-33-40-60-82-60-27 0-43 9-51 23-8 15-8 35-3 57H68C33 63 136 0 274-19l-20-96z"/><glyph glyph-name="percent" unicode="%" horiz-adv-x="1056" d="M667 219C630 47 693-19 822-19c118 0 223 82 257 238 18 87 35 238-156 238-118 0-223-82-256-238zm170 0c22 107 38 120 61 120s33-13 11-120c-23-107-39-120-62-120s-33 13-10 120zM131 503c-37-172 26-238 155-238 118 0 224 82 257 238 18 87 36 238-155 238-118 0-224-82-257-238zm170 0c23 107 38 120 61 120s34-13 11-120-39-120-62-120-33 13-10 120zM269-25h106l567 772H836L269-25z"/><glyph glyph-name="ampersand" unicode="&amp;" horiz-adv-x="888" d="M618 0h274L778 154c74 52 143 163 161 244H733c-11-42-34-80-66-112l-71 87c112 62 172 134 185 198 21 96-56 170-245 170-184 0-306-63-331-180-13-62 20-123 81-171C142 351 76 274 61 200 32 65 130-19 329-19c85 0 173 18 254 62l35-43zM489 154c-43-23-83-37-115-37-46 0-82 32-73 78 6 28 39 64 93 78l95-119zm-59 409c5 23 24 48 76 48s61-25 56-48c-4-18-33-50-83-78-38 28-53 60-49 78z"/><glyph glyph-name="quotesingle" unicode="'" horiz-adv-x="352" d="M175 422h182l63 300H238l-63-300z"/><glyph glyph-name="parenleft" unicode="(" horiz-adv-x="388" d="M331-144c-13 151-8 328 14 433 23 105 93 282 170 433H327c-86-144-177-300-206-433-28-133-3-289 22-433h188z"/><glyph glyph-name="parenright" unicode=")" horiz-adv-x="388" d="M179 722c13-151 9-328-14-433C143 184 72 7-5-144h188C270 0 361 156 389 289c29 133 4 289-22 433H179z"/><glyph glyph-name="asterisk" unicode="*" horiz-adv-x="388" d="M146 521h86l-60-79 63-42 61 79 27-79 81 42-26 79h86l17 80h-86l60 79-64 42-60-79-28 79-80-42 26-79h-86l-17-80z"/><glyph glyph-name="plus" unicode="+" horiz-adv-x="600" d="M300 321H115L86 185h185L232 0h136l39 185h185l29 136H436l40 185H340l-40-185z"/><glyph glyph-name="comma" unicode="," horiz-adv-x="352" d="M-11-100h206l170 306H123L-11-100z"/><glyph glyph-name="hyphen" unicode="-" horiz-adv-x="407" d="M68 182h349l36 170H104L68 182z"/><glyph glyph-name="period" unicode="." horiz-adv-x="352" d="M55 0h242l44 206H99L55 0z"/><glyph glyph-name="slash" unicode="/" horiz-adv-x="370" d="M-20-19h142l422 760H402L-20-19z"/><glyph glyph-name="zero" unicode="0" horiz-adv-x="704" d="M369 361c39 186 65 204 103 204s56-18 17-204c-40-186-66-204-104-204s-56 18-16 204zm-268 0C52 132 123-19 348-19s360 151 409 380c48 229-22 380-247 380S149 590 101 361z"/><glyph glyph-name="one" unicode="1" horiz-adv-x="704" d="M242 0h274l153 722H451c-65-60-153-99-238-126l-44-206c66 19 115 44 173 80L242 0z"/><glyph glyph-name="two" unicode="2" horiz-adv-x="704" d="M38 0h634l40 188H431v2c239 123 327 213 351 327 24 115-34 224-275 224-198 0-333-73-371-250h250c13 60 44 80 78 80 29 0 52-16 43-59-10-48-75-121-246-219L78 188 38 0z"/><glyph glyph-name="three" unicode="3" horiz-adv-x="704" d="M316 290h42c73 0 99-26 89-75-9-41-38-70-83-70-38 0-65 19-56 78H66C31 57 120-19 350-19c186 0 331 77 364 230 18 84-8 156-138 167l1 2c120 16 177 82 194 159 24 114-47 202-273 202-173 0-324-63-362-242h242c12 58 38 78 78 78 47 0 54-29 47-64-9-44-44-69-102-69h-53l-32-154z"/><glyph glyph-name="four" unicode="4" horiz-adv-x="704" d="M343 0h262l25 116h86l38 182h-86l90 424H410L81 322 38 116h330L343 0zm-68 298l188 248h2l-53-248H275z"/><glyph glyph-name="five" unicode="5" horiz-adv-x="704" d="M113 285h238c13 42 30 58 64 58 35 0 54-11 35-97-16-78-44-101-79-101-32 0-39 24-35 54H80C58 44 161-19 351-19c178 0 331 95 370 278 32 148-54 226-188 226-53 0-106-13-155-52l35 119h327l36 170H219L113 285z"/><glyph glyph-name="six" unicode="6" horiz-adv-x="704" d="M397 145c-43 0-63 23-49 92 14 66 44 89 87 89s63-23 49-89c-14-69-44-92-87-92zm357 378c35 162-68 218-223 218-225 0-374-133-431-401C53 116 133-19 354-19c194 0 339 99 373 261 33 155-68 226-192 226-55 0-114-13-163-55 31 121 59 164 112 164 27 0 48-10 38-54h232z"/><glyph glyph-name="seven" unicode="7" horiz-adv-x="704" d="M156 534h322L91 0h292l391 568 32 154H195l-39-188z"/><glyph glyph-name="eight" unicode="8" horiz-adv-x="704" d="M68 188C46 86 101-19 347-19c248 0 347 105 369 207 19 89-10 158-107 178v2c86 16 144 66 163 156 28 129-55 217-263 217-204 0-325-88-353-217-19-90 19-140 93-156v-2C146 346 87 277 68 188zm268 30c12 55 44 73 79 73 33 0 57-18 45-73-11-55-43-73-76-73-35 0-59 18-48 73zm74 293c10 48 32 66 66 66s48-18 38-66c-11-49-32-66-66-66s-49 17-38 66z"/><glyph glyph-name="nine" unicode="9" horiz-adv-x="704" d="M373 485c15 69 45 92 88 92s63-23 48-92c-14-66-44-89-87-89s-63 23-49 89zM103 199C69 37 172-19 327-19c225 0 373 133 430 401 48 224-32 359-253 359-194 0-340-99-374-261-33-155 68-226 192-226 55 0 115 13 164 55-31-121-59-164-112-164-27 0-48 10-39 54H103z"/><glyph glyph-name="colon" unicode=":" horiz-adv-x="352" d="M121 311h242l44 206H165l-44-206zM55 0h242l44 206H99L55 0z"/><glyph glyph-name="semicolon" unicode=";" horiz-adv-x="352" d="M-11-100h206l170 306H123L-11-100zm156 411h242l44 206H189l-44-206z"/><glyph glyph-name="less" unicode="&lt;" horiz-adv-x="600" d="M87 191L552-8l28 130-310 131 366 131 27 130-550-199-26-124z"/><glyph glyph-name="equal" unicode="=" horiz-adv-x="600" d="M112 307h506l29 136H141l-29-136zM60 63h506l29 136H89L60 63z"/><glyph glyph-name="greater" unicode="&gt;" horiz-adv-x="600" d="M44-8l551 199 26 124-466 199-27-130 310-131L72 122 44-8z"/><glyph glyph-name="question" unicode="?" horiz-adv-x="537" d="M140 517c51 19 102 30 139 30 44 0 67-17 60-49-2-11-13-32-36-52l-89-74c-34-29-56-57-65-100l-14-64h242l11 49c7 33 22 50 48 69l100 72c50 37 82 75 96 145 30 137-83 198-234 198-52 0-143-12-218-36l-40-188zM91 0h242l35 164H126L91 0z"/><glyph glyph-name="at" unicode="@" horiz-adv-x="800" d="M388 337c13 63 71 101 117 101 35 0 63-28 53-78-14-62-72-100-114-100-39 0-67 28-56 77zm237 165c-21 43-59 60-111 60-125 0-237-107-266-241-21-101 25-191 132-191 44 0 82 17 114 52h2c-4-42 24-52 47-52 60 0 280 71 330 308 37 172-72 303-315 303-210 0-417-170-461-380C52 151 186-19 396-19c156 0 273 55 368 163H648c-60-41-122-63-221-63-148 0-255 105-218 279 34 163 179 281 341 281 147 0 245-72 211-234-27-126-95-165-122-165-8 0-10 10-7 25 2 12 10 33 21 61l86 216h-94l-20-42z"/><glyph glyph-name="A" unicode="A" horiz-adv-x="796" d="M389 292l121 272h2l-1-272H389zM-19 0h274l54 116h207l3-116h296l-79 722H365L-19 0z"/><glyph glyph-name="B" unicode="B" horiz-adv-x="758" d="M477 568c57 0 84-17 74-65-9-42-36-72-102-72h-38l29 137h37zM51 0h403c180 0 295 83 321 207 16 77-11 154-119 169v2c113 25 155 87 170 157 25 121-37 187-193 187H204L51 0zm331 295h37c67 0 96-21 87-65-11-53-44-76-114-76h-40l30 141z"/><glyph glyph-name="C" unicode="C" horiz-adv-x="758" d="M522 267c-20-76-50-98-87-98-72 0-61 82-37 192 24 116 48 192 122 192 35 0 61-16 48-98h262c44 212-94 286-276 286-244 0-411-152-452-377C54 135 138-19 391-19c90 0 179 22 250 68 72 47 128 119 149 218H522z"/><glyph glyph-name="D" unicode="D" horiz-adv-x="796" d="M51 0h356c222 0 393 135 439 353 46 214-14 369-303 369H204L51 0zm399 558h28c46 0 69-17 81-46 12-30 8-81-7-151s-32-121-57-151c-25-29-55-46-101-46h-28l84 394z"/><glyph glyph-name="E" unicode="E" horiz-adv-x="630" d="M51 0h558l40 188H365l17 81h254l40 188H422l17 77h275l39 188H204L51 0z"/><glyph glyph-name="F" unicode="F" horiz-adv-x="610" d="M51 0h286l57 269h245l40 188H434l17 77h263l39 188H204L51 0z"/><glyph glyph-name="G" unicode="G" horiz-adv-x="814" d="M456 265h98l-18-87c-26-11-52-15-79-15-37 0-63 13-73 43-8 23-4 71 11 141 13 61 32 132 52 161s53 51 96 51c18 0 34-4 44-13s16-24 12-47h268c33 169-67 242-289 242-268 0-429-159-476-380S148-19 408-19c118 0 252 19 370 48l81 378H487l-31-142z"/><glyph glyph-name="H" unicode="H" horiz-adv-x="796" d="M459 0h286l153 722H612l-51-244H439l51 244H204L51 0h286l57 266h122L459 0z"/><glyph glyph-name="I" unicode="I" horiz-adv-x="388" d="M51 0h286l153 722H204L51 0z"/><glyph glyph-name="J" unicode="J" horiz-adv-x="666" d="M386 245c-10-49-26-76-67-76-28 0-38 22-31 55l3 15H49l-8-35C10 57 126-19 295-19c194 0 338 82 374 250l104 491H487L386 245z"/><glyph glyph-name="K" unicode="K" horiz-adv-x="796" d="M51 0h280l69 324h2L499 0h310L670 382l265 340H633L421 412h-2l65 310H204L51 0z"/><glyph glyph-name="L" unicode="L" horiz-adv-x="610" d="M51 0h549l41 194H378l112 528H204L51 0z"/><glyph glyph-name="M" unicode="M" horiz-adv-x="1056" d="M763 0h242l153 722H761L591 292h-2l12 430H204L51 0h242l110 516h2L397 0h262l212 516h2L763 0z"/><glyph glyph-name="N" unicode="N" horiz-adv-x="832" d="M51 0h232l94 440h2L438 0h343l153 722H702l-92-437h-2l-61 437H204L51 0z"/><glyph glyph-name="O" unicode="O" horiz-adv-x="796" d="M398 361c34 163 72 192 118 192s70-29 36-192c-36-167-74-192-118-192s-72 25-36 192zm-296 0C54 136 145-19 394-19s406 155 454 380-43 380-292 380-406-155-454-380z"/><glyph glyph-name="P" unicode="P" horiz-adv-x="740" d="M51 0h286l52 243h94c202 0 316 98 347 242 29 136-32 237-206 237H204L51 0zm373 407l32 151h30c62 0 81-22 70-73s-44-78-118-78h-14z"/><glyph glyph-name="Q" unicode="Q" horiz-adv-x="796" d="M398 361c34 163 72 192 118 192s70-29 36-192c-36-167-74-192-118-192s-72 25-36 192zm433-185H730c56 55 96 112 115 202 48 222-45 363-289 363-249 0-406-155-454-380S145-19 394-19c42 0 85 5 124 10 38 5 72 9 96 9h180l37 176z"/><glyph glyph-name="R" unicode="R" horiz-adv-x="758" d="M51 0h280l55 257h33c46 0 61-14 59-50-3-62-14-153-8-207h280c-10 109 14 211 11 273-2 55-34 86-102 92v2c114 26 162 89 180 172 28 136-53 183-208 183H204L51 0zm369 421l30 137h26c56 0 90-11 79-64-11-54-56-73-111-73h-24z"/><glyph glyph-name="S" unicode="S" horiz-adv-x="722" d="M790 517c36 168-87 224-267 224-211 0-351-85-382-235-20-93 5-160 109-193l190-60c25-8 43-22 37-49-6-32-39-59-81-59-27 0-43 9-51 23-8 15-8 35-4 55H67C27 35 176-19 350-19c204 0 364 74 401 251 19 87-7 152-90 190-67 31-163 51-215 67-28 9-43 20-37 46 4 22 29 42 75 42 37 0 58-15 50-60h256z"/><glyph glyph-name="T" unicode="T" horiz-adv-x="648" d="M181 0h286l112 528h178l41 194H156l-41-194h178L181 0z"/><glyph glyph-name="U" unicode="U" horiz-adv-x="778" d="M885 722H599l-99-468c-12-57-44-79-74-79s-52 22-40 79l99 468H199L97 242C60 68 167-19 385-19s361 87 398 261l102 480z"/><glyph glyph-name="V" unicode="V" horiz-adv-x="759" d="M195 0h370l355 722H646L421 158h-2l17 564H145L195 0z"/><glyph glyph-name="W" unicode="W" horiz-adv-x="1036" d="M140 0h310l166 468h2L586 0h310l309 722H949L792 268h-2l29 454H523L360 268h-2l35 454H137l3-722z"/><glyph glyph-name="X" unicode="X" horiz-adv-x="778" d="M490 0h302L638 369l298 353H650L507 517l-51 205H154l144-353L-14 0h286l157 218L490 0z"/><glyph glyph-name="Y" unicode="Y" horiz-adv-x="740" d="M227 0h286l53 250 343 472H635L471 419h-2l-36 303H137l143-472L227 0z"/><glyph glyph-name="Z" unicode="Z" horiz-adv-x="685" d="M23 0h639l40 188H394l377 358 37 176H185l-39-188h293L60 176 23 0z"/><glyph glyph-name="bracketleft" unicode="[" horiz-adv-x="481" d="M49-144h367l35 164H296l115 538h155l34 164H233L49-144z"/><glyph glyph-name="backslash" unicode="\" horiz-adv-x="370" d="M240-19h142l-98 760H142l98-760z"/><glyph glyph-name="bracketright" unicode="]" horiz-adv-x="481" d="M153 558h155L193 20H38L3-144h367l184 866H187l-34-164z"/><glyph glyph-name="asciicircum" unicode="^" horiz-adv-x="600" d="M481 357h130l-97 365H392L141 357h130l152 223 58-223z"/><glyph glyph-name="underscore" unicode="_" horiz-adv-x="500" d="M-27-125h500l11 50H-16l-11-50z"/><glyph glyph-name="grave" unicode="`" horiz-adv-x="278" d="M193 552h176l-62 170H75l118-170z"/><glyph glyph-name="a" unicode="a" horiz-adv-x="592" d="M400 313h-29c-188 0-299-51-326-175C24 39 85-15 187-15c55 0 111 17 156 63l-4-48h212l72 339c25 117-24 178-217 178-127 0-257-29-294-164h200c12 42 30 52 60 52 34 0 44-15 39-40l-11-52zm-29-136c-9-41-28-68-70-68-37 0-52 20-45 52 6 28 27 58 91 58h33l-9-42z"/><glyph glyph-name="b" unicode="b" horiz-adv-x="666" d="M338 251c10 44 12 57 21 78 12 29 35 46 62 46 50 0 47-44 30-124-14-68-32-124-84-124-27 0-35 12-39 27s-1 45 10 97zM43 0h228l16 58c30-57 86-73 141-73 122 0 229 94 267 272 40 190-42 260-151 260-56 0-113-16-162-61l56 266H196L43 0z"/><glyph glyph-name="c" unicode="c" horiz-adv-x="630" d="M667 296c22 136-41 221-236 221-178 0-314-90-351-263C37 51 155-15 312-15c199 0 302 78 335 218H423c-19-65-36-94-75-94-37 0-53 18-28 135 27 128 52 149 92 149 42 0 42-34 31-97h224z"/><glyph glyph-name="d" unicode="d" horiz-adv-x="666" d="M434 251c-11-52-20-82-30-97s-24-27-51-27c-52 0-46 56-32 124 17 80 34 124 84 124 27 0 42-17 42-46-1-21-3-34-13-78zM395 0h228l153 722H534l-56-266c-31 45-80 61-136 61-109 0-221-70-261-260C43 79 110-15 232-15c55 0 117 16 171 73l-8-58z"/><glyph glyph-name="e" unicode="e" horiz-adv-x="630" d="M420 161c-14-36-44-52-71-52-48 0-63 25-50 83l3 15h346l7 34c38 179-32 276-222 276-180 0-316-90-353-263C37 51 155-15 302-15c188 0 288 62 330 176H420zm-95 152l1 7c10 48 42 73 81 73 38 0 57-25 47-73l-1-7H325z"/><glyph glyph-name="f" unicode="f" horiz-adv-x="388" d="M54 0h242l75 354h85l32 148h-85l6 29c6 29 22 43 53 43 17 0 35-1 52-2l30 142c-35 9-86 14-132 14-114 0-216-61-241-176l-10-50h-54L75 354h54L54 0z"/><glyph glyph-name="g" unicode="g" horiz-adv-x="666" d="M362 145c-53 0-47 40-34 101 12 56 28 129 87 129 57 0 44-58 32-117-13-61-25-113-85-113zm40-134c-13-63-39-85-81-85-17 0-29 4-36 11-8 7-10 18-7 29H40C29-136 82-204 278-204c179 0 312 45 356 249l97 457H503l-16-55h-2c-21 52-69 70-128 70-125 0-238-80-278-268C40 67 145 9 244 9c56 0 120 12 170 65h2l-14-63z"/><glyph glyph-name="h" unicode="h" horiz-adv-x="648" d="M36 0h242l67 313c8 40 32 56 59 56 29 0 40-21 32-58L370 0h242l71 334c28 133-34 183-135 183-82 0-129-29-176-83h-2l61 288H189L36 0z"/><glyph glyph-name="i" unicode="i" horiz-adv-x="314" d="M36 0h242l107 502H143L36 0zm121 568h242l32 154H189l-32-154z"/><glyph glyph-name="j" unicode="j" horiz-adv-x="314" d="M38 10C26-46 6-62-34-62c-9 0-18 1-27 2l-26-124c20-7 49-8 77-8 141 0 250 11 285 176l110 518H143L38 10zm119 558h242l32 154H189l-32-154z"/><glyph glyph-name="k" unicode="k" horiz-adv-x="630" d="M36 0h242l56 262h2L380 0h262l-89 287 186 215H477L345 308h-2l88 414H189L36 0z"/><glyph glyph-name="l" unicode="l" horiz-adv-x="314" d="M36 0h242l153 722H189L36 0z"/><glyph glyph-name="m" unicode="m" horiz-adv-x="980" d="M41 0h242l67 313c8 40 32 56 55 56s38-19 31-54L369 0h242l67 313c8 40 32 56 55 56s38-19 31-54L697 0h242l71 334c28 133-34 183-135 183-57 0-121-19-177-91-18 62-68 91-145 91-57 0-121-19-177-91h-2l10 76H148L41 0z"/><glyph glyph-name="n" unicode="n" horiz-adv-x="648" d="M36 0h242l67 313c8 40 32 56 59 56 29 0 40-21 32-58L370 0h242l71 334c28 133-34 183-135 183-57 0-121-19-177-91h-2l10 76H143L36 0z"/><glyph glyph-name="o" unicode="o" horiz-adv-x="666" d="M79 251C46 92 126-15 330-15S660 92 693 251c34 159-46 266-250 266S113 410 79 251zm250 0c22 100 46 130 85 130s51-30 29-130c-21-100-45-130-84-130s-51 30-30 130z"/><glyph glyph-name="p" unicode="p" horiz-adv-x="666" d="M338 251c11 52 21 82 31 97s24 27 51 27c52 0 46-56 31-124-17-80-33-124-83-124-27 0-42 17-42 46 0 21 3 34 12 78zM2-192h242l51 238c30-45 80-61 136-61 109 0 221 70 261 260 38 178-29 272-151 272-55 0-118-16-172-73l9 58H150L2-192z"/><glyph glyph-name="q" unicode="q" horiz-adv-x="666" d="M434 251c-9-44-12-57-20-78-12-29-35-46-62-46-50 0-48 44-31 124 15 68 33 124 85 124 27 0 35-12 39-27s0-45-11-97zm51 193c-30 57-85 73-140 73-122 0-229-94-267-272C38 55 120-15 229-15c56 0 112 16 162 61l-51-238h242l148 694H502l-17-58z"/><glyph glyph-name="r" unicode="r" horiz-adv-x="444" d="M36 0h242l56 263c7 32 29 63 75 63 43 0 72-7 98-14l39 182c-20 12-41 14-61 14-31 0-67-16-112-61l6 55H143L36 0z"/><glyph glyph-name="s" unicode="s" horiz-adv-x="592" d="M625 347c24 132-75 170-230 170-179 0-268-76-288-168-19-92 21-127 139-151 70-14 88-18 103-21 29-6 32-22 29-37-5-24-20-43-58-43-17 0-30 4-37 15-7 10-8 27-4 55H61C35 33 125-15 288-15c200 0 289 69 313 178 20 98-23 136-213 163-62 9-69 20-65 42 5 22 20 37 60 37 16 0 27-3 34-11 6-8 7-22 2-47h206z"/><glyph glyph-name="t" unicode="t" horiz-adv-x="426" d="M97 126C73 14 154-15 248-15c48 0 108 10 165 22l32 148c-23-6-43-6-60-6-29 0-39 13-30 51l32 154h109l32 148H419l35 165-260-84-17-81h-65L80 354h65L97 126z"/><glyph glyph-name="u" unicode="u" horiz-adv-x="648" d="M719 502H477l-67-313c-8-40-33-56-60-56-29 0-39 21-31 58l66 311H143L72 168C43 35 106-15 207-15c57 0 121 19 177 91h2L376 0h236l107 502z"/><glyph glyph-name="v" unicode="v" horiz-adv-x="630" d="M150 0h330l257 502H487L356 188h-2l3 314H107L150 0z"/><glyph glyph-name="w" unicode="w" horiz-adv-x="944" d="M106 0h296l128 320h2L524 0h296l231 502H819L697 176h-2l14 326H441L311 176h-2l30 326H107L106 0z"/><glyph glyph-name="x" unicode="x" horiz-adv-x="630" d="M387 0h256l-99 270 177 232H465l-73-134-28 134H108l88-232L-13 0h268l91 150L387 0z"/><glyph glyph-name="y" unicode="y" horiz-adv-x="630" d="M92-192h262l386 694H498L373 226h-2l-11 276H104l93-517L92-192z"/><glyph glyph-name="z" unicode="z" horiz-adv-x="536" d="M25 0h486l35 164H371l198 184 33 154H146l-35-164h161L55 142 25 0z"/><glyph glyph-name="braceleft" unicode="{" horiz-adv-x="481" d="M582 722H416c-89 0-152-64-165-126l-36-169c-11-51-61-56-106-56L74 207c45 0 93-5 82-56L120-18c-13-62 23-126 112-126h166l35 164h-35c-41 0-54 18-45 60l24 115c16 71-54 87-92 93l1 2c40 6 116 22 131 93l25 115c9 42 30 60 71 60h35l34 164z"/><glyph glyph-name="bar" unicode="|" horiz-adv-x="546" d="M274 846V-282h156V846H274z"/><glyph glyph-name="braceright" unicode="}" horiz-adv-x="481" d="M21-144h166c89 0 153 64 166 126l36 169c11 51 61 56 106 56l35 164c-45 0-93 5-82 56l36 169c13 62-24 126-113 126H205l-34-164h35c41 0 54-18 45-60l-25-115c-15-71 55-87 93-93l-1-2c-40-6-116-22-132-93L162 80c-9-42-30-60-71-60H56L21-144z"/><glyph glyph-name="asciitilde" unicode="~" horiz-adv-x="600" d="M138 153c34 48 66 70 98 70 92 0 123-70 203-70 44 0 92 25 143 86l-12 114c-37-43-72-70-103-70-51 0-125 70-198 70-47 0-98-23-143-86l12-114z"/><glyph glyph-name="uni00A0" horiz-adv-x="352"/><glyph glyph-name="exclamdown" unicode="¡" horiz-adv-x="370" d="M3-185h286l65 511H154L3-185zm140 558h242l35 164H178l-35-164z"/><glyph glyph-name="cent" unicode="¢" horiz-adv-x="704" d="M267-123h142l23 108C555 8 654 62 684 203H460c-18-64-35-94-76-94-44 0-51 23-27 135 27 128 52 149 92 149 42 0 42-34 31-97h224c22 131-45 206-159 221l23 108H426l-23-108c-120-21-252-103-286-263-19-90-7-153 26-196s86-65 147-73l-23-108z"/><glyph glyph-name="sterling" unicode="£" horiz-adv-x="704" d="M35 0h639l41 194H398l20 91h139l34 164H452l8 34c13 64 41 76 65 76 20 0 37-12 31-50h242l4 20c30 140-61 212-235 212-175 0-320-83-353-236l-12-56h-93L75 285h93l-20-91H76L35 0z"/><glyph glyph-name="currency" unicode="¤" horiz-adv-x="704" d="M182 101l66 54c33-27 77-42 128-42s101 15 146 42l42-54 89 73-43 55c33 37 56 83 67 132 11 51 6 98-13 137l70 58-57 73-73-59c-31 25-74 39-123 39-48 0-96-14-139-39l-47 59-89-73 46-58c-35-39-60-86-71-137-11-49-6-95 11-132l-67-55 57-73zm129 260c14 65 78 118 143 118s107-53 93-118-78-118-143-118-107 53-93 118z"/><glyph glyph-name="yen" unicode="¥" horiz-adv-x="704" d="M217 0h268l17 82h149l29 136H531l7 32 20 27h135l29 136h-68l218 309H610L451 419h-2l-31 303H138l86-309h-68l-29-136h135l8-27-7-32H114L85 82h149L217 0z"/><glyph glyph-name="brokenbar" unicode="¦" horiz-adv-x="546" d="M274 762V367h156v395H274zm0-565v-394h156v394H274z"/><glyph glyph-name="section" unicode="§" horiz-adv-x="704" d="M104 8c69-18 165-27 242-27 165 0 244 63 262 145 10 46-5 88-50 109 93 30 132 85 146 149 35 165-198 155-187 207 3 14 21 20 44 20 39 0 84-9 128-19l27 130c-58 11-129 19-193 19-192 0-267-59-287-151-8-40 1-89 62-109v-2c-87-16-132-86-142-133-33-152 194-144 182-202-4-17-21-33-50-33-46 0-105 15-155 33L104 8zm283 329c-21 12-25 28-22 42 2 11 14 24 37 38l21 13c71-21 87-43 83-65-3-13-16-36-64-60l-55 32z"/><glyph glyph-name="dieresis" unicode="¨" horiz-adv-x="278" d="M54 552h164l36 170H90L54 552zm240 0h164l36 170H330l-36-170z"/><glyph glyph-name="copyright" unicode="©" horiz-adv-x="800" d="M543 306c-15-45-50-63-92-63-50 0-76 49-61 119s56 116 112 116c43 0 66-17 65-57h106c3 100-57 151-148 151-125 0-222-90-247-212-26-119 36-211 159-211 88 0 176 52 212 157H543zM97 361C52 151 186-19 396-19s416 170 461 380c44 210-89 380-299 380S141 571 97 361zm118 0c31 145 172 262 317 262s238-117 207-262S566 99 421 99 184 216 215 361z"/><glyph glyph-name="ordfeminine" unicode="ª" horiz-adv-x="403" d="M362 625h-18c-136 0-208-30-225-111-13-60 28-92 107-92 36 0 72 10 101 39l-2-30h160l43 203c15 71-17 107-165 107-100 0-185-17-208-100h148c6 20 18 26 38 26 22 0 28-9 25-24l-4-18zm-19-88c-4-18-15-35-41-35-22 0-36 8-32 26 4 19 17 37 58 37h21l-6-28z"/><glyph glyph-name="guillemotleft" unicode="«" horiz-adv-x="648" d="M344 250L443 0h194l-55 250 161 250H549L344 250zm-280 0L163 0h194l-55 250 161 250H269L64 250z"/><glyph glyph-name="logicalnot" unicode="¬" horiz-adv-x="600" d="M444 126h136l67 317H141l-29-136h370l-38-181z"/><glyph glyph-name="uni00AD" unicode="­" horiz-adv-x="407" d="M68 182h349l36 170H104L68 182z"/><glyph glyph-name="registered" unicode="®" horiz-adv-x="800" d="M286 168h94l32 154h34l45-154h106l-49 159c64 6 98 47 111 105 19 89-23 122-142 122H368l-82-386zm219 312c52 0 67-14 62-38-6-28-19-46-64-46h-75l18 84h59zM97 361C52 151 186-19 396-19s416 170 461 380c44 210-89 380-299 380S141 571 97 361zm118 0c31 145 172 262 317 262s238-117 207-262S566 99 421 99 184 216 215 361z"/><glyph glyph-name="macron" unicode="¯" horiz-adv-x="278" d="M48 581h428l26 118H74L48 581z"/><glyph glyph-name="degree" unicode="°" horiz-adv-x="400" d="M184 598c-17-79 34-143 113-143s156 64 173 143-33 143-112 143-157-64-174-143zm88 0c6 30 37 55 67 55s49-25 43-55-37-55-67-55-49 25-43 55z"/><glyph glyph-name="plusminus" unicode="±" horiz-adv-x="600" d="M317 401H132l-29-136h185l-22-105h136l22 105h185l29 136H453l23 105H340l-23-105zM47 0h506l29 136H76L47 0z"/><glyph glyph-name="twosuperior" unicode="²" horiz-adv-x="458" d="M82 296h434l29 136H367v2c144 50 200 104 215 172 14 69-24 135-192 135-150 0-237-44-262-164h188c7 34 22 46 40 46 17 0 27-10 23-28-4-21-45-64-156-123l-113-46-28-130z"/><glyph glyph-name="threesuperior" unicode="³" horiz-adv-x="458" d="M268 476h28c48 0 66-16 60-42-4-20-23-37-50-37-24 0-41 11-38 36H86c-21-103 39-148 211-148 144 0 237 46 257 138 11 50-7 93-105 101l1 2c89 8 125 47 135 93 14 69-32 122-200 122-132 0-230-38-253-148h176c5 24 21 36 44 36 26 0 39-10 35-27-7-31-29-46-66-46h-36l-17-80z"/><glyph glyph-name="acute" unicode="´" horiz-adv-x="278" d="M133 552h176l190 170H267L133 552z"/><glyph glyph-name="mu" unicode="µ" horiz-adv-x="648" d="M410 189c-8-40-33-56-60-56-25 0-40 19-32 54l67 315H143L-5-192h242l39 181c2-2 8-4 15-4 15 0 43 12 93 91h2L376 0h236l107 502H477l-67-313z"/><glyph glyph-name="paragraph" unicode="¶" horiz-adv-x="620" d="M442 0h136l153 722H403c-147 0-240-42-267-169-24-112 43-164 188-164L241 0h136l132 622h65L442 0z"/><glyph glyph-name="periodcentered" unicode="·" horiz-adv-x="352" d="M108 251c-14-67 29-121 96-121s132 54 146 121c15 67-28 121-95 121s-132-54-147-121z"/><glyph glyph-name="cedilla" unicode="¸" horiz-adv-x="278" d="M35-92l32-30c12 4 26 7 33 7 19 0 38-9 34-27-4-20-33-34-59-34s-57 10-84 24l-41-64c31-17 81-28 133-28 84 0 155 39 170 106 11 54-25 85-77 85-10 0-22-1-30-3h-2l44 56h-82L35-92z"/><glyph glyph-name="onesuperior" unicode="¹" horiz-adv-x="458" d="M227 296h206l92 434H356c-41-31-97-54-153-70l-30-142c42 11 75 26 111 48l-57-270z"/><glyph glyph-name="ordmasculine" unicode="º" horiz-adv-x="451" d="M124 582c-21-96 33-160 191-160 159 0 239 64 260 160 20 95-33 159-192 159-158 0-239-64-259-159zm187-4c11 52 28 69 53 69 24 0 33-17 23-63-11-52-27-68-51-68-25 0-35 16-25 62z"/><glyph glyph-name="guillemotright" unicode="»" horiz-adv-x="648" d="M172 250L11 0h194l205 250-99 250H117l55-250zm280 0L291 0h194l205 250-99 250H397l55-250z"/><glyph glyph-name="onequarter" unicode="¼" horiz-adv-x="1056" d="M771 0h188l12 58h54l27 124h-54l53 252H783L575 193 546 58h237L771 0zm-50 182l114 128h2l-27-128h-89zM236-25h106l567 772H803L236-25zm-9 321h206l92 434H356c-41-31-97-54-153-70l-30-142c42 11 75 26 111 48l-57-270z"/><glyph glyph-name="onehalf" unicode="½" horiz-adv-x="1056" d="M226-25h106l567 772H793L226-25zm1 321h206l92 434H356c-41-31-97-54-153-70l-30-142c42 11 75 26 111 48l-57-270zM578 0h434l28 130H856v2c151 56 207 110 222 178 15 69-24 135-192 135-150 0-237-44-263-167h188c8 37 24 49 42 49 17 0 26-10 23-28-5-21-46-64-157-123l-113-46L578 0z"/><glyph glyph-name="threequarters" unicode="¾" horiz-adv-x="1056" d="M803 0h188l12 58h54l27 124h-54l53 252H815L607 193 578 58h237L803 0zm-50 182l114 128h2l-27-128h-89zM296-25h106l567 772H863L296-25zm-11 501h28c48 0 66-16 60-42-4-20-23-37-50-37-24 0-41 11-38 36H103c-21-103 39-148 211-148 144 0 237 46 257 138 11 50-7 93-105 101l1 2c89 8 125 47 135 93 14 69-32 122-200 122-132 0-230-38-253-148h176c5 24 21 36 44 36 26 0 39-10 35-27-7-31-29-46-66-46h-36l-17-80z"/><glyph glyph-name="questiondown" unicode="¿" horiz-adv-x="537" d="M264 280c-7-33-23-50-49-69l-99-72C65 102 34 64 19-6c-29-137 84-198 235-198 52 0 142 12 217 36l40 188C460 1 409-10 372-10c-44 0-67 17-60 49 3 11 13 32 36 52l89 74c34 29 56 57 65 100l14 64H274l-10-49zm19 93h242l35 164H318l-35-164z"/><glyph glyph-name="Agrave" unicode="À" horiz-adv-x="796" d="M389 292l121 272h2l-1-272H389zM-19 0h274l54 116h207l3-116h296l-79 722H365L-19 0zm518 772h176l-62 170H381l118-170z"/><glyph glyph-name="Aacute" unicode="Á" horiz-adv-x="796" d="M389 292l121 272h2l-1-272H389zM-19 0h274l54 116h207l3-116h296l-79 722H365L-19 0zm458 772h176l190 170H573L439 772z"/><glyph glyph-name="Acircumflex" unicode="Â" horiz-adv-x="796" d="M389 292l121 272h2l-1-272H389zM-19 0h274l54 116h207l3-116h296l-79 722H365L-19 0zm625 772h182l-78 170H486L336 772h182l60 76 28-76z"/><glyph glyph-name="Atilde" unicode="Ã" horiz-adv-x="796" d="M389 292l121 272h2l-1-272H389zM-19 0h274l54 116h207l3-116h296l-79 722H365L-19 0zm708 936c-5-19-17-28-29-28-26 0-95 34-152 34-79 0-139-61-157-145l-4-19h124c4 19 14 28 25 28 28 0 95-34 143-34 101 0 152 61 174 164H689z"/><glyph glyph-name="Adieresis" unicode="Ä" horiz-adv-x="796" d="M389 292l121 272h2l-1-272H389zM-19 0h274l54 116h207l3-116h296l-79 722H365L-19 0zm379 772h164l36 170H396l-36-170zm240 0h164l36 170H636l-36-170z"/><glyph glyph-name="Aring" unicode="Å" horiz-adv-x="796" d="M389 292l121 272h2l-1-272H389zM-19 0h274l54 116h207l3-116h296l-79 722H365L-19 0zm474 886c-15-72 31-131 103-131s144 59 159 131c16 72-31 131-103 131s-143-59-159-131zm88 0c5 24 28 43 52 43s39-19 34-43-28-43-52-43-39 19-34 43z"/><glyph glyph-name="AE" unicode="Æ" horiz-adv-x="1000" d="M515 0h464l40 188H799l8 81h208l40 188H826l10 77h255l39 188H438L-19 0h268l67 116h212L515 0zm-97 292l161 282h2l-36-282H418z"/><glyph glyph-name="Ccedilla" unicode="Ç" horiz-adv-x="758" d="M275-92l32-30c12 4 26 7 33 7 19 0 38-9 34-27-4-20-33-34-59-34s-57 10-84 24l-41-64c31-17 81-28 133-28 84 0 155 39 170 106 11 54-25 85-77 85-10 0-22-1-30-3h-2l30 39c172 6 335 94 376 284H522c-20-76-50-98-87-98-72 0-61 82-37 192 24 116 48 192 122 192 35 0 61-16 48-98h262c44 212-94 286-276 286-244 0-411-152-452-377C58 153 125 6 334-16l-59-76z"/><glyph glyph-name="Egrave" unicode="È" horiz-adv-x="630" d="M51 0h558l40 188H365l17 81h254l40 188H422l17 77h275l39 188H204L51 0zm365 772h176l-62 170H298l118-170z"/><glyph glyph-name="Eacute" unicode="É" horiz-adv-x="630" d="M51 0h558l40 188H365l17 81h254l40 188H422l17 77h275l39 188H204L51 0zm305 772h176l190 170H490L356 772z"/><glyph glyph-name="Ecircumflex" unicode="Ê" horiz-adv-x="630" d="M51 0h558l40 188H365l17 81h254l40 188H422l17 77h275l39 188H204L51 0zm472 772h182l-78 170H403L253 772h182l60 76 28-76z"/><glyph glyph-name="Edieresis" unicode="Ë" horiz-adv-x="630" d="M51 0h558l40 188H365l17 81h254l40 188H422l17 77h275l39 188H204L51 0zm226 772h164l36 170H313l-36-170zm240 0h164l36 170H553l-36-170z"/><glyph glyph-name="Igrave" unicode="Ì" horiz-adv-x="388" d="M51 0h286l153 722H204L51 0zm244 772h176l-62 170H177l118-170z"/><glyph glyph-name="Iacute" unicode="Í" horiz-adv-x="388" d="M51 0h286l153 722H204L51 0zm184 772h176l190 170H369L235 772z"/><glyph glyph-name="Icircumflex" unicode="Î" horiz-adv-x="388" d="M51 0h286l153 722H204L51 0zm351 772h182l-78 170H282L132 772h182l60 76 28-76z"/><glyph glyph-name="Idieresis" unicode="Ï" horiz-adv-x="388" d="M51 0h286l153 722H204L51 0zm105 772h164l36 170H192l-36-170zm240 0h164l36 170H432l-36-170z"/><glyph glyph-name="Eth" unicode="Ð" horiz-adv-x="796" d="M51 0h356c222 0 393 135 439 353 46 214-14 369-303 369H204l-61-291H92L67 313h51L51 0zm426 558c98 0 101-72 76-193-16-74-33-125-58-155-25-29-55-46-101-46h-28l32 149h74l25 118h-74l27 127h27z"/><glyph glyph-name="Ntilde" unicode="Ñ" horiz-adv-x="832" d="M51 0h232l94 440h2L438 0h343l153 722H702l-92-437h-2l-61 437H204L51 0zm656 936c-5-19-17-28-29-28-26 0-95 34-152 34-79 0-139-61-157-145l-4-19h124c4 19 14 28 25 28 28 0 95-34 143-34 101 0 152 61 174 164H707z"/><glyph glyph-name="Ograve" unicode="Ò" horiz-adv-x="796" d="M398 361c34 163 72 192 118 192s70-29 36-192c-36-167-74-192-118-192s-72 25-36 192zm-296 0C54 136 145-19 394-19s406 155 454 380-43 380-292 380-406-155-454-380zm397 411h176l-62 170H381l118-170z"/><glyph glyph-name="Oacute" unicode="Ó" horiz-adv-x="796" d="M398 361c34 163 72 192 118 192s70-29 36-192c-36-167-74-192-118-192s-72 25-36 192zm-296 0C54 136 145-19 394-19s406 155 454 380-43 380-292 380-406-155-454-380zm337 411h176l190 170H573L439 772z"/><glyph glyph-name="Ocircumflex" unicode="Ô" horiz-adv-x="796" d="M398 361c34 163 72 192 118 192s70-29 36-192c-36-167-74-192-118-192s-72 25-36 192zm-296 0C54 136 145-19 394-19s406 155 454 380-43 380-292 380-406-155-454-380zm504 411h182l-78 170H486L336 772h182l60 76 28-76z"/><glyph glyph-name="Otilde" unicode="Õ" horiz-adv-x="796" d="M398 361c34 163 72 192 118 192s70-29 36-192c-36-167-74-192-118-192s-72 25-36 192zm-296 0C54 136 145-19 394-19s406 155 454 380-43 380-292 380-406-155-454-380zm587 575c-5-19-17-28-29-28-26 0-95 34-152 34-79 0-139-61-157-145l-4-19h124c4 19 14 28 25 28 28 0 95-34 143-34 101 0 152 61 174 164H689z"/><glyph glyph-name="Odieresis" unicode="Ö" horiz-adv-x="796" d="M398 361c34 163 72 192 118 192s70-29 36-192c-36-167-74-192-118-192s-72 25-36 192zm-296 0C54 136 145-19 394-19s406 155 454 380-43 380-292 380-406-155-454-380zm258 411h164l36 170H396l-36-170zm240 0h164l36 170H636l-36-170z"/><glyph glyph-name="multiply" unicode="×" horiz-adv-x="600" d="M154 11l180 148L450 11l114 94-117 148 180 148-74 94-179-148-117 148-114-94 118-148L80 105l74-94z"/><glyph glyph-name="Oslash" unicode="Ø" horiz-adv-x="796" d="M572 389h2c-36-166-71-220-142-220-21 0-41 4-47 18l187 202zm-194-56h-2c37 175 73 220 140 220 21 0 44-5 49-18L378 333zM124-93L225 15c45-22 101-34 169-34 249 0 406 155 454 380 25 117 14 213-39 282l97 105-81 67-99-107c-43 21-100 33-170 33-249 0-406-155-454-380-25-117-12-215 40-281L43-26l81-67z"/><glyph glyph-name="Ugrave" unicode="Ù" horiz-adv-x="778" d="M885 722H599l-99-468c-12-57-44-79-74-79s-52 22-40 79l99 468H199L97 242C60 68 167-19 385-19s361 87 398 261l102 480zm-395 50h176l-62 170H372l118-170z"/><glyph glyph-name="Uacute" unicode="Ú" horiz-adv-x="778" d="M885 722H599l-99-468c-12-57-44-79-74-79s-52 22-40 79l99 468H199L97 242C60 68 167-19 385-19s361 87 398 261l102 480zm-455 50h176l190 170H564L430 772z"/><glyph glyph-name="Ucircumflex" unicode="Û" horiz-adv-x="778" d="M885 722H599l-99-468c-12-57-44-79-74-79s-52 22-40 79l99 468H199L97 242C60 68 167-19 385-19s361 87 398 261l102 480zm-288 50h182l-78 170H477L327 772h182l60 76 28-76z"/><glyph glyph-name="Udieresis" unicode="Ü" horiz-adv-x="778" d="M885 722H599l-99-468c-12-57-44-79-74-79s-52 22-40 79l99 468H199L97 242C60 68 167-19 385-19s361 87 398 261l102 480zm-534 50h164l36 170H387l-36-170zm240 0h164l36 170H627l-36-170z"/><glyph glyph-name="Yacute" unicode="Ý" horiz-adv-x="740" d="M227 0h286l53 250 343 472H635L471 419h-2l-36 303H137l143-472L227 0zm184 772h176l190 170H545L411 772z"/><glyph glyph-name="Thorn" unicode="Þ" horiz-adv-x="740" d="M51 0h286l27 127h94c202 0 317 98 347 242 29 136-31 237-205 237H466l24 116H204L51 0zm348 291l32 151h30c62 0 81-22 70-73-10-51-44-78-118-78h-14z"/><glyph glyph-name="germandbls" unicode="ß" horiz-adv-x="758" d="M335 173C307 39 352-15 498-15c144 0 263 65 289 189 36 168-141 168-130 223 9 39 120 72 140 167 22 105-60 177-281 177-234 0-340-80-370-225L36 0h242l102 482c21 95 71 135 125 135 38 0 68-17 60-53-14-64-130-75-152-177-26-123 170-148 153-228-6-28-21-38-37-38-17 0-29 13-23 41l3 11H335z"/><glyph glyph-name="agrave" unicode="à" horiz-adv-x="592" d="M400 313h-29c-188 0-299-51-326-175C24 39 85-15 187-15c55 0 111 17 156 63l-4-48h212l72 339c25 117-24 178-217 178-127 0-257-29-294-164h200c12 42 30 52 60 52 34 0 44-15 39-40l-11-52zm-29-136c-9-41-28-68-70-68-37 0-52 20-45 52 6 28 27 58 91 58h33l-9-42zm-21 375h176l-62 170H232l118-170z"/><glyph glyph-name="aacute" unicode="á" horiz-adv-x="592" d="M400 313h-29c-188 0-299-51-326-175C24 39 85-15 187-15c55 0 111 17 156 63l-4-48h212l72 339c25 117-24 178-217 178-127 0-257-29-294-164h200c12 42 30 52 60 52 34 0 44-15 39-40l-11-52zm-29-136c-9-41-28-68-70-68-37 0-52 20-45 52 6 28 27 58 91 58h33l-9-42zm-81 375h176l190 170H424L290 552z"/><glyph glyph-name="acircumflex" unicode="â" horiz-adv-x="592" d="M400 313h-29c-188 0-299-51-326-175C24 39 85-15 187-15c55 0 111 17 156 63l-4-48h212l72 339c25 117-24 178-217 178-127 0-257-29-294-164h200c12 42 30 52 60 52 34 0 44-15 39-40l-11-52zm-29-136c-9-41-28-68-70-68-37 0-52 20-45 52 6 28 27 58 91 58h33l-9-42zm86 375h182l-78 170H337L187 552h182l60 76 28-76z"/><glyph glyph-name="atilde" unicode="ã" horiz-adv-x="592" d="M400 313h-29c-188 0-299-51-326-175C24 39 85-15 187-15c55 0 111 17 156 63l-4-48h212l72 339c25 117-24 178-217 178-127 0-257-29-294-164h200c12 42 30 52 60 52 34 0 44-15 39-40l-11-52zm-29-136c-9-41-28-68-70-68-37 0-52 20-45 52 6 28 27 58 91 58h33l-9-42zm169 539c-5-19-17-28-29-28-26 0-95 34-152 34-79 0-139-61-156-145l-4-19h124c4 19 14 28 25 28 28 0 94-34 142-34 101 0 152 61 174 164H540z"/><glyph glyph-name="adieresis" unicode="ä" horiz-adv-x="592" d="M400 313h-29c-188 0-299-51-326-175C24 39 85-15 187-15c55 0 111 17 156 63l-4-48h212l72 339c25 117-24 178-217 178-127 0-257-29-294-164h200c12 42 30 52 60 52 34 0 44-15 39-40l-11-52zm-29-136c-9-41-28-68-70-68-37 0-52 20-45 52 6 28 27 58 91 58h33l-9-42zM211 552h164l36 170H247l-36-170zm240 0h164l36 170H487l-36-170z"/><glyph glyph-name="aring" unicode="å" horiz-adv-x="592" d="M400 313h-29c-188 0-299-51-326-175C24 39 85-15 187-15c55 0 111 17 156 63l-4-48h212l72 339c25 117-24 178-217 178-127 0-257-29-294-164h200c12 42 30 52 60 52 34 0 44-15 39-40l-11-52zm-29-136c-9-41-28-68-70-68-37 0-52 20-45 52 6 28 27 58 91 58h33l-9-42zm-61 504c-16-72 31-131 103-131s143 59 159 131c15 72-31 131-103 131s-144-59-159-131zm88 0c5 24 28 43 52 43s39-19 34-43-28-43-52-43-39 19-34 43z"/><glyph glyph-name="ae" unicode="æ" horiz-adv-x="906" d="M929 207l7 34c38 179-32 276-207 276-70 0-123-14-178-54-32 37-85 54-145 54-127 0-257-29-294-164h200c12 42 30 52 60 52 34 0 44-15 39-40l-11-52h-29c-188 0-299-51-326-175C20 20 115-15 224-15c76 0 152 14 208 69 28-41 80-69 175-69 164 0 264 62 306 176H701c-14-36-44-52-71-52-48 0-63 25-50 83l3 15h346zm-558-30c-9-41-28-68-70-68-37 0-52 20-45 52 6 28 27 58 91 58h33l-9-42zm235 136l1 7c10 48 42 73 81 73 38 0 57-25 47-73l-1-7H606z"/><glyph glyph-name="ccedilla" unicode="ç" horiz-adv-x="630" d="M211-92l32-30c12 4 26 7 33 7 19 0 38-9 34-27-4-20-33-34-59-34s-57 10-84 24l-41-64c31-17 81-28 133-28 84 0 155 39 170 106 11 54-25 85-77 85-10 0-22-1-30-3h-2l34 43C526-3 617 74 647 203H423c-19-65-36-94-75-94-37 0-53 18-28 135 27 128 52 149 92 149 42 0 42-34 31-97h224c22 136-41 221-236 221-178 0-314-90-351-263C41 69 135-3 272-13l-61-79z"/><glyph glyph-name="egrave" unicode="è" horiz-adv-x="630" d="M420 161c-14-36-44-52-71-52-48 0-63 25-50 83l3 15h346l7 34c38 179-32 276-222 276-180 0-316-90-353-263C37 51 155-15 302-15c188 0 288 62 330 176H420zm-95 152l1 7c10 48 42 73 81 73 38 0 57-25 47-73l-1-7H325zm44 239h176l-62 170H251l118-170z"/><glyph glyph-name="eacute" unicode="é" horiz-adv-x="630" d="M420 161c-14-36-44-52-71-52-48 0-63 25-50 83l3 15h346l7 34c38 179-32 276-222 276-180 0-316-90-353-263C37 51 155-15 302-15c188 0 288 62 330 176H420zm-95 152l1 7c10 48 42 73 81 73 38 0 57-25 47-73l-1-7H325zm-16 239h176l190 170H443L309 552z"/><glyph glyph-name="ecircumflex" unicode="ê" horiz-adv-x="630" d="M420 161c-14-36-44-52-71-52-48 0-63 25-50 83l3 15h346l7 34c38 179-32 276-222 276-180 0-316-90-353-263C37 51 155-15 302-15c188 0 288 62 330 176H420zm-95 152l1 7c10 48 42 73 81 73 38 0 57-25 47-73l-1-7H325zm151 239h182l-78 170H356L206 552h182l60 76 28-76z"/><glyph glyph-name="edieresis" unicode="ë" horiz-adv-x="630" d="M420 161c-14-36-44-52-71-52-48 0-63 25-50 83l3 15h346l7 34c38 179-32 276-222 276-180 0-316-90-353-263C37 51 155-15 302-15c188 0 288 62 330 176H420zm-95 152l1 7c10 48 42 73 81 73 38 0 57-25 47-73l-1-7H325zm-95 239h164l36 170H266l-36-170zm240 0h164l36 170H506l-36-170z"/><glyph glyph-name="igrave" unicode="ì" horiz-adv-x="314" d="M36 0h242l107 502H143L36 0zm175 552h176l-62 170H93l118-170z"/><glyph glyph-name="iacute" unicode="í" horiz-adv-x="314" d="M36 0h242l107 502H143L36 0zm115 552h176l190 170H285L151 552z"/><glyph glyph-name="icircumflex" unicode="î" horiz-adv-x="314" d="M36 0h242l107 502H143L36 0zm282 552h182l-78 170H198L48 552h182l60 76 28-76z"/><glyph glyph-name="idieresis" unicode="ï" horiz-adv-x="314" d="M36 0h242l107 502H143L36 0zm36 552h164l36 170H108L72 552zm240 0h164l36 170H348l-36-170z"/><glyph glyph-name="eth" unicode="ð" horiz-adv-x="666" d="M292 500l117 57c38-30 59-67 68-106l-3-2c-22 19-54 27-88 27-154 0-279-94-309-236C45 89 121-15 325-15c215 0 339 129 375 296 32 150 3 275-104 361l118 57-71 70-131-61c-40 26-103 51-133 61L246 641c23-3 49-15 70-28l-112-55 88-58zm25-270c19 91 54 116 91 116 36 0 58-25 39-116-19-90-53-115-89-115-37 0-60 25-41 115z"/><glyph glyph-name="ntilde" unicode="ñ" horiz-adv-x="648" d="M36 0h242l67 313c8 40 32 56 59 56 29 0 40-21 32-58L370 0h242l71 334c28 133-34 183-135 183-57 0-121-19-177-91h-2l10 76H143L36 0zm532 716c-5-19-17-28-29-28-26 0-95 34-152 34-79 0-139-61-156-145l-4-19h124c4 19 14 28 25 28 28 0 94-34 142-34 101 0 152 61 174 164H568z"/><glyph glyph-name="ograve" unicode="ò" horiz-adv-x="666" d="M79 251C46 92 126-15 330-15S660 92 693 251c34 159-46 266-250 266S113 410 79 251zm250 0c22 100 46 130 85 130s51-30 29-130c-21-100-45-130-84-130s-51 30-30 130zm58 301h176l-62 170H269l118-170z"/><glyph glyph-name="oacute" unicode="ó" horiz-adv-x="666" d="M79 251C46 92 126-15 330-15S660 92 693 251c34 159-46 266-250 266S113 410 79 251zm250 0c22 100 46 130 85 130s51-30 29-130c-21-100-45-130-84-130s-51 30-30 130zm-2 301h176l190 170H461L327 552z"/><glyph glyph-name="ocircumflex" unicode="ô" horiz-adv-x="666" d="M79 251C46 92 126-15 330-15S660 92 693 251c34 159-46 266-250 266S113 410 79 251zm250 0c22 100 46 130 85 130s51-30 29-130c-21-100-45-130-84-130s-51 30-30 130zm165 301h182l-78 170H374L224 552h182l60 76 28-76z"/><glyph glyph-name="otilde" unicode="õ" horiz-adv-x="666" d="M79 251C46 92 126-15 330-15S660 92 693 251c34 159-46 266-250 266S113 410 79 251zm250 0c22 100 46 130 85 130s51-30 29-130c-21-100-45-130-84-130s-51 30-30 130zm248 465c-5-19-17-28-29-28-26 0-95 34-152 34-79 0-139-61-156-145l-4-19h124c4 19 14 28 25 28 28 0 94-34 142-34 101 0 152 61 174 164H577z"/><glyph glyph-name="odieresis" unicode="ö" horiz-adv-x="666" d="M79 251C46 92 126-15 330-15S660 92 693 251c34 159-46 266-250 266S113 410 79 251zm250 0c22 100 46 130 85 130s51-30 29-130c-21-100-45-130-84-130s-51 30-30 130zm-81 301h164l36 170H284l-36-170zm240 0h164l36 170H524l-36-170z"/><glyph glyph-name="divide" unicode="÷" horiz-adv-x="600" d="M86 185h506l29 136H115L86 185zM219 46c-11-50 21-91 71-91S390-4 401 46c10 50-22 91-72 91S229 96 219 46zm88 414c-11-50 21-91 71-91s100 41 111 91c10 50-22 91-72 91s-100-41-110-91z"/><glyph glyph-name="oslash" unicode="ø" horiz-adv-x="666" d="M466 282c0-8-2-19-5-31-24-116-53-148-106-148-23 0-39 6-46 22l157 157zm-160-59c1 8 3 18 5 28 25 116 54 148 107 148 21 0 36-5 45-20L306 223zM54-30l51-49 87 87c38-15 83-23 138-23 204 0 330 107 363 266 19 88 3 161-51 207l78 77-52 47-90-87c-36 15-81 22-135 22-204 0-330-107-364-266-18-87-2-159 50-206L54-30z"/><glyph glyph-name="ugrave" unicode="ù" horiz-adv-x="648" d="M719 502H477l-67-313c-8-40-33-56-60-56-29 0-39 21-31 58l66 311H143L72 168C43 35 106-15 207-15c57 0 121 19 177 91h2L376 0h236l107 502zm-341 50h176l-62 170H260l118-170z"/><glyph glyph-name="uacute" unicode="ú" horiz-adv-x="648" d="M719 502H477l-67-313c-8-40-33-56-60-56-29 0-39 21-31 58l66 311H143L72 168C43 35 106-15 207-15c57 0 121 19 177 91h2L376 0h236l107 502zm-401 50h176l190 170H452L318 552z"/><glyph glyph-name="ucircumflex" unicode="û" horiz-adv-x="648" d="M719 502H477l-67-313c-8-40-33-56-60-56-29 0-39 21-31 58l66 311H143L72 168C43 35 106-15 207-15c57 0 121 19 177 91h2L376 0h236l107 502zm-234 50h182l-78 170H365L215 552h182l60 76 28-76z"/><glyph glyph-name="udieresis" unicode="ü" horiz-adv-x="648" d="M719 502H477l-67-313c-8-40-33-56-60-56-29 0-39 21-31 58l66 311H143L72 168C43 35 106-15 207-15c57 0 121 19 177 91h2L376 0h236l107 502zm-480 50h164l36 170H275l-36-170zm240 0h164l36 170H515l-36-170z"/><glyph glyph-name="yacute" unicode="ý" horiz-adv-x="630" d="M92-192h262l386 694H498L373 226h-2l-11 276H104l93-517L92-192zm217 744h176l190 170H443L309 552z"/><glyph glyph-name="thorn" unicode="þ" horiz-adv-x="666" d="M338 251c11 52 21 82 31 97s24 27 51 27c52 0 46-56 31-124-17-80-33-124-83-124-27 0-42 17-42 46 0 21 3 34 12 78zM2-192h242l51 238c30-45 80-61 136-61 109 0 221 70 261 260 38 178-29 272-151 272-55 0-118-16-160-73h-2l59 278H196L2-192z"/><glyph glyph-name="ydieresis" unicode="ÿ" horiz-adv-x="630" d="M92-192h262l386 694H498L373 226h-2l-11 276H104l93-517L92-192zm138 744h164l36 170H266l-36-170zm240 0h164l36 170H506l-36-170z"/><glyph glyph-name="dotlessi" unicode="ı" horiz-adv-x="314" d="M36 0h242l107 502H143L36 0z"/><glyph glyph-name="Lslash" unicode="Ł" horiz-adv-x="610" d="M51 0h549l41 194H378l35 163 165 74 34 160-165-74 43 205H204l-74-348-80-37-34-160 80 37L51 0z"/><glyph glyph-name="lslash" unicode="ł" horiz-adv-x="350" d="M54 0h242l80 377 64 46 33 154-64-46 40 191H207l-81-385-64-46-33-154 64 46L54 0z"/><glyph glyph-name="OE" unicode="Œ" horiz-adv-x="962" d="M481 179c-15-7-38-12-55-12-33 0-57 21-60 57-3 33 1 66 17 142 31 148 72 189 127 189 17 0 34-5 48-12l-77-364zm572 355l39 188H698c-24 0-48 1-73 2-24 0-49 1-74 1-238 0-398-121-449-364C51 121 163-3 363-3c21 0 44 1 67 2 24 0 48 1 72 1h439l40 188H757l17 81h198l40 188H814l17 77h222z"/><glyph glyph-name="oe" unicode="œ" horiz-adv-x="944" d="M967 207l7 34c38 179-32 276-212 276-80 0-138-24-182-51-36 31-92 51-166 51-170 0-306-110-342-277C41 93 114-15 295-15c67 0 143 17 190 59 24-40 90-59 165-59 145 0 256 57 301 176H739c-14-36-44-52-71-52-48 0-63 25-50 83l3 15h346zm-650 45c21 100 48 129 82 129 39 0 53-29 32-129-22-102-48-131-87-131-34 0-49 29-27 131zm327 61l1 7c10 48 42 73 81 73 38 0 57-25 47-73l-1-7H644z"/><glyph glyph-name="Scaron" unicode="Š" horiz-adv-x="722" d="M790 517c36 168-87 224-267 224-211 0-351-85-382-235-20-93 5-160 109-193l190-60c25-8 43-22 37-49-6-32-39-59-81-59-27 0-43 9-51 23-8 15-8 35-4 55H67C27 35 176-19 350-19c204 0 364 74 401 251 19 87-7 152-90 190-67 31-163 51-215 67-28 9-43 20-37 46 4 22 29 42 75 42 37 0 58-15 50-60h256zM413 772h224l150 170H605l-60-76-28 76H335l78-170z"/><glyph glyph-name="scaron" unicode="š" horiz-adv-x="592" d="M625 347c24 132-75 170-230 170-179 0-268-76-288-168-19-92 21-127 139-151 70-14 88-18 103-21 29-6 32-22 29-37-5-24-20-43-58-43-17 0-30 4-37 15-7 10-8 27-4 55H61C35 33 125-15 288-15c200 0 289 69 313 178 20 98-23 136-213 163-62 9-69 20-65 42 5 22 20 37 60 37 16 0 27-3 34-11 6-8 7-22 2-47h206zM301 552h224l150 170H493l-60-76-28 76H223l78-170z"/><glyph glyph-name="Ydieresis" unicode="Ÿ" horiz-adv-x="740" d="M227 0h286l53 250 343 472H635L471 419h-2l-36 303H137l143-472L227 0zm105 772h164l36 170H368l-36-170zm240 0h164l36 170H608l-36-170z"/><glyph glyph-name="Zcaron" unicode="Ž" horiz-adv-x="685" d="M23 0h639l40 188H394l377 358 37 176H185l-39-188h293L60 176 23 0zm372 772h224l150 170H587l-60-76-28 76H317l78-170z"/><glyph glyph-name="zcaron" unicode="ž" horiz-adv-x="536" d="M25 0h486l35 164H371l198 184 33 154H146l-35-164h161L55 142 25 0zm248 552h224l150 170H465l-60-76-28 76H195l78-170z"/><glyph glyph-name="florin" unicode="ƒ" horiz-adv-x="704" d="M163 267h105L173 22c-18-44-39-62-66-62-19 0-33 5-44 11L9-176c38-17 91-28 133-28 86 0 194 24 249 167l119 304h135l35 164H575l41 105c11 28 27 41 52 41 14 0 32-3 47-9l57 154c-37 12-93 19-144 19-115 0-193-42-241-166l-54-144H198l-35-164z"/><glyph glyph-name="circumflex" unicode="ˆ" horiz-adv-x="278" d="M300 552h182l-78 170H180L30 552h182l60 76 28-76z"/><glyph glyph-name="caron" unicode="ˇ" horiz-adv-x="278" d="M144 552h224l150 170H336l-60-76-28 76H66l78-170z"/><glyph glyph-name="uni02C9" unicode="ˉ" horiz-adv-x="278" d="M48 581h428l26 118H74L48 581z"/><glyph glyph-name="breve" unicode="˘" horiz-adv-x="278" d="M95 722c-13-127 60-176 160-176s193 49 234 176H341c-10-42-39-58-61-58s-43 16-37 58H95z"/><glyph glyph-name="dotaccent" unicode="˙" horiz-adv-x="278" d="M174 552h164l36 170H210l-36-170z"/><glyph glyph-name="ring" unicode="˚" horiz-adv-x="278" d="M153 681c-16-72 31-131 103-131s143 59 159 131c15 72-31 131-103 131s-144-59-159-131zm88 0c5 24 28 43 52 43s39-19 34-43-28-43-52-43-39 19-34 43z"/><glyph glyph-name="ogonek" unicode="˛" horiz-adv-x="278" d="M182 0C106-27 32-77 17-144c-13-61 23-88 115-88 42 0 92 8 124 17l-2 68c-22-8-45-11-63-11-34 0-49 17-43 44 7 35 52 71 134 114H182z"/><glyph glyph-name="tilde" unicode="˜" horiz-adv-x="278" d="M383 716c-5-19-17-28-29-28-26 0-95 34-152 34-79 0-139-61-156-145l-4-19h124c4 19 14 28 25 28 28 0 94-34 142-34 101 0 152 61 174 164H383z"/><glyph glyph-name="hungarumlaut" unicode="˝" horiz-adv-x="278" d="M-52 552h176l190 170H82L-52 552zm290 0h176l190 170H372L238 552z"/><glyph glyph-name="uni03A9" unicode="Ω" horiz-adv-x="890" d="M228 163H72L37 0h378l27 125c-75 41-111 130-85 251 27 129 119 204 214 204 100 0 148-82 123-199-30-139-101-205-191-256L476 0h376l35 163H727v4c92 58 175 135 201 257 35 162-71 320-324 320-247 0-427-152-463-322-27-126 34-211 87-255v-4z"/><glyph glyph-name="uni03BC" unicode="μ" horiz-adv-x="648" d="M410 189c-8-40-33-56-60-56-25 0-40 19-32 54l67 315H143L-5-192h242l39 181c2-2 8-4 15-4 15 0 43 12 93 91h2L376 0h236l107 502H477l-67-313z"/><glyph glyph-name="pi" unicode="π" horiz-adv-x="775" d="M828 386l54 168H341c-124 0-203-16-233-43l-9-132c32 7 73 7 105 7-18-99-84-273-140-386h218c54 86 117 273 143 386h107l-47-220c-14-65-26-143-14-166h218c0 38 10 108 25 180l44 206h70z"/><glyph glyph-name="endash" unicode="–" horiz-adv-x="500" d="M39 182h500l36 170H75L39 182z"/><glyph glyph-name="emdash" unicode="—" horiz-adv-x="1000" d="M39 182h1000l36 170H75L39 182z"/><glyph glyph-name="quoteleft" unicode="‘" horiz-adv-x="352" d="M113 422h232l137 300H288L113 422z"/><glyph glyph-name="quoteright" unicode="’" horiz-adv-x="352" d="M113 422h194l175 300H250L113 422z"/><glyph glyph-name="quotesinglbase" unicode="‚" horiz-adv-x="352" d="M3-94h194l176 300H141L3-94z"/><glyph glyph-name="quotedblleft" unicode="“" horiz-adv-x="592" d="M95 422h232l137 300H270L95 422zm276 0h232l137 300H546L371 422z"/><glyph glyph-name="quotedblright" unicode="”" horiz-adv-x="592" d="M371 422h194l175 300H508L371 422zm-276 0h194l175 300H232L95 422z"/><glyph glyph-name="quotedblbase" unicode="„" horiz-adv-x="592" d="M261-94h194l176 300H399L261-94zm-276 0h194l176 300H123L-15-94z"/><glyph glyph-name="dagger" unicode="†" horiz-adv-x="704" d="M249 0h206l88 412h162l34 164H577l31 146H402l-31-146H209l-34-164h162L249 0z"/><glyph glyph-name="daggerdbl" unicode="‡" horiz-adv-x="704" d="M255 0h194l25 116h168l32 154H506l39 182h168l33 154H578l24 116H408l-24-116H216l-33-154h168l-39-182H144l-32-154h168L255 0z"/><glyph glyph-name="bullet" unicode="•" horiz-adv-x="500" d="M146 360c-22-100 42-181 142-181s198 81 220 181c21 100-43 181-143 181s-198-81-219-181z"/><glyph glyph-name="ellipsis" unicode="…" horiz-adv-x="1000" d="M46 0h242l44 206H90L46 0zm333 0h242l44 206H423L379 0zm333 0h242l44 206H756L712 0z"/><glyph glyph-name="perthousand" unicode="‰" horiz-adv-x="1166" d="M111 509c-30-141 19-216 117-216 127 0 196 89 227 232 30 141-19 216-117 216-127 0-196-89-227-232zm138 8c21 98 33 118 59 118s30-20 9-118-33-118-59-118-30 20-9 118zm244-320C463 56 512-19 610-19c127 0 196 89 226 232 30 141-19 216-117 216-127 0-196-89-226-232zm138 8c20 98 33 118 59 118s29-20 9-118c-21-98-34-118-60-118s-29 20-8 118zm234-8C835 56 884-19 982-19c127 0 196 89 226 232 30 141-19 216-117 216-127 0-196-89-226-232zm138 8c20 98 33 118 59 118s29-20 9-118c-21-98-34-118-60-118s-29 20-8 118zM136-25h106l567 772H703L136-25z"/><glyph glyph-name="guilsinglleft" unicode="‹" horiz-adv-x="352" d="M155 0h194l-55 250 161 250H261L56 250 155 0z"/><glyph glyph-name="guilsinglright" unicode="›" horiz-adv-x="352" d="M164 250L3 0h194l205 250-99 250H109l55-250z"/><glyph glyph-name="fraction" unicode="⁄" horiz-adv-x="167" d="M-176-25h106l567 772H391L-176-25z"/><glyph glyph-name="Euro" unicode="€" horiz-adv-x="704" d="M493 209c-15-57-36-73-64-73-35 0-41 38-34 98h96l46 93H411l11 54h142l46 93H445c19 60 41 96 76 96 25 0 44-10 35-65h248c34 163-90 220-251 220-176 0-304-97-370-251h-46l-46-93h60l-11-54h-34l-46-93h72c0-155 81-253 262-253 159 0 314 69 347 228H493z"/><glyph glyph-name="afii61289" unicode="ℓ" horiz-adv-x="689" d="M628 244c-49-48-114-89-172-89-47 0-68 29-66 60l3 27c181 122 289 223 316 350 23 109-20 204-162 204-157 0-270-102-315-311l-44-206c-38-23-79-46-116-68l33-106c22 10 36 19 58 31 0-3 0-5-1-7 13-98 75-145 203-145 102 0 228 38 332 167l-69 93zM455 530c21 99 50 127 77 127s36-21 28-61c-10-46-58-117-129-176l24 110z"/><glyph glyph-name="trademark" unicode="™" horiz-adv-x="1000" d="M204 310h136l67 318h102l20 94H189l-20-94h102l-67-318zm503 0h104l122 230h2l-49-230h124l87 412H927L797 483h-2l-30 239H595l-87-412h124l49 230h2l24-230z"/><glyph glyph-name="Omega" unicode="Ω" horiz-adv-x="890" d="M228 163H72L37 0h378l27 125c-75 41-111 130-85 251 27 129 119 204 214 204 100 0 148-82 123-199-30-139-101-205-191-256L476 0h376l35 163H727v4c92 58 175 135 201 257 35 162-71 320-324 320-247 0-427-152-463-322-27-126 34-211 87-255v-4z"/><glyph glyph-name="estimated" unicode="℮" horiz-adv-x="1074" d="M1038 350v11c0 210-189 380-423 380-233 0-422-170-422-380S382-18 615-18c136 0 258 58 334 147h-61C822 52 725 3 616 3 515 3 424 47 357 115c-5 7-9 15-9 24v207c0 3 3 4 6 4h684zm-156 27c0-2-1-6-4-6H354c-3 0-6 4-6 6v204c0 10 4 19 11 26 66 67 157 111 257 111s190-43 256-108c7-7 10-16 10-25V377z"/><glyph glyph-name="partialdiff" unicode="∂" horiz-adv-x="731" d="M247 610c30 16 94 47 174 47 131 0 167-108 147-199l-3-15h-1c-14 28-59 80-153 80-167 0-296-123-329-280C60 139 114-15 306-15c216 0 411 155 469 428 53 250-72 410-289 410-136 0-232-48-269-68l30-145zm119-460c-47 0-77 37-66 89 14 67 65 124 130 124 58 0 83-47 83-72-22-60-83-141-146-141h-1z"/><glyph glyph-name="Delta" unicode="∆" horiz-adv-x="816" d="M22 0h771l23 106-113 639H434L44 104 22 0zm273 165l148 258c24 49 57 109 73 142h4c3-44 11-105 16-153l39-247H295z"/><glyph glyph-name="product" unicode="∏" horiz-adv-x="1041" d="M1022 552v179H175V552h118v-653h213v653h185v-653h213v653h118z"/><glyph glyph-name="summation" unicode="∑" horiz-adv-x="847" d="M834-101V79H464v5l218 253-193 216v4h318v174H192V594l244-282L179 17v-118h655z"/><glyph glyph-name="minus" unicode="−" horiz-adv-x="600" d="M86 185h506l29 136H115L86 185z"/><glyph glyph-name="uni2215" unicode="∕" horiz-adv-x="167" d="M-176-25h106l567 772H391L-176-25z"/><glyph glyph-name="uni2219" unicode="∙" horiz-adv-x="352" d="M108 251c-14-67 29-121 96-121s132 54 146 121c15 67-28 121-95 121s-132-54-147-121z"/><glyph glyph-name="radical" unicode="√" horiz-adv-x="901" d="M934 879H783L593 161c-10-42-17-80-23-107l-2 1c-8 29-19 63-30 98L429 453 186 353l34-102 85 35 179-437h165L934 879z"/><glyph glyph-name="infinity" unicode="∞" horiz-adv-x="966" d="M919 304c0 119-86 193-184 194-103 2-156-71-191-111-55 75-112 111-194 111-111 0-197-81-197-203 0-123 90-199 186-199 86 0 142 46 197 117C606 108 677 96 731 96c95 0 188 75 188 206v2zM350 201c-49 0-90 44-90 94 0 65 40 100 89 100 63 0 90-45 130-105-34-45-75-89-127-89h-2zm375 194c54 0 87-46 87-101 0-39-28-93-81-93-45 0-76 15-135 98 31 41 71 96 128 96h1z"/><glyph glyph-name="integral" unicode="∫" horiz-adv-x="633" d="M622 905c-14 5-45 11-78 11-59 0-124-17-161-55-54-54-79-125-79-252 0-189 21-289 21-496 0-78-7-117-27-142-13-16-32-22-53-22-20 0-37 5-51 10l-22-137c23-10 68-17 107-17 70 0 143 28 182 102 24 45 37 120 37 205 0 202-20 300-20 475 0 80 4 134 22 162 12 19 34 31 61 31 17 0 30-2 44-6l17 131z"/><glyph glyph-name="approxequal" unicode="≈" horiz-adv-x="747" d="M641 510c-33-45-66-75-106-75-31 0-49 11-95 40-30 19-63 34-116 34-76 0-152-56-188-115l72-74c32 39 65 74 113 74 37 0 63-16 92-34 47-27 78-41 128-41 55 0 121 38 173 117l-73 74zm0-223c-37-47-65-75-108-75-37 0-61 22-94 41-29 17-62 33-115 33-75 0-152-56-188-115l72-74c33 39 63 74 114 74 35 0 59-14 91-34 43-25 77-41 126-41 59 0 124 40 175 117l-73 74z"/><glyph glyph-name="notequal" unicode="≠" horiz-adv-x="765" d="M612 554l-92 39-53-119H178V360h242l-56-127H178V120h139l-37-82 91-40 54 122h288v113H474l55 127h184v114H577l35 80z"/><glyph glyph-name="lessequal" unicode="≤" horiz-adv-x="793" d="M740 136v125L327 430v3l412 168v125L209 493V370l531-234zm2-152v117H208V-16h534z"/><glyph glyph-name="greaterequal" unicode="≥" horiz-adv-x="793" d="M210 726V601l412-168v-2L211 261V136l530 234v122L210 726zM736-16v117H209V-16h527z"/><glyph glyph-name="lozenge" unicode="◊" horiz-adv-x="900" d="M852 364L613 781H447L207 364 444-51h165l243 415zm-186-4L550 147c-5-11-14-36-18-47h-5c-3 11-12 33-18 48L391 368l115 210c7 15 16 36 20 51h3c4-15 13-36 20-51l117-218z"/><glyph glyph-name="fi" unicode="ﬁ" horiz-adv-x="704" d="M54 0h242l75 354h85l32 148h-85l6 29c6 29 22 43 53 43 17 0 35-1 52-2l30 142c-35 9-86 14-132 14-114 0-216-61-241-176l-10-50h-54L75 354h54L54 0zm372 0h242l107 502H533L426 0zm121 568h242l32 154H579l-32-154z"/><glyph glyph-name="fl" unicode="ﬂ" horiz-adv-x="704" d="M54 0h242l75 354h85l32 148h-85l6 29c6 29 22 43 53 43 17 0 35-1 52-2l30 142c-35 9-86 14-132 14-114 0-216-61-241-176l-10-50h-54L75 354h54L54 0zm372 0h242l153 722H579L426 0z"/></font>
</svg>
