<svg xmlns="http://www.w3.org/2000/svg" version="1.2"><font><font-face font-family="Univers LT Std" ascent="724" descent="-276" font-style="normal" font-weight="700" cap-height="724" x-height="498" underline-position="-75" underline-thickness="50"/><glyph glyph-name="null"/><glyph glyph-name="nonmarkingreturn" horiz-adv-x="250"/><glyph glyph-name="space" horiz-adv-x="278"/><glyph glyph-name="exclam" unicode="!" horiz-adv-x="389" d="M244 197l13 526H123l18-526h103zM129 0h127v133H129V0z"/><glyph glyph-name="quotedbl" unicode="&quot;" horiz-adv-x="474" d="M73 697l27-248h79l27 248H73zm192 0l27-248h79l26 248H265z"/><glyph glyph-name="numbersign" unicode="#" horiz-adv-x="556" d="M-9 175h82L41 0h129l32 175h96L265 0h128l32 175h103v110h-82l22 121h103v110h-83l34 181H393l-33-181h-95l33 181H170l-33-181H34V406h82L94 285H-9V175zm231 110l23 121h95l-23-121h-95z"/><glyph glyph-name="dollar" unicode="$" horiz-adv-x="556" d="M24 215c3-69 12-119 55-158C96 43 147-5 244-2v-100h53V-2c36 3 89 6 141 43 39 29 85 81 85 161 0 142-107 178-219 205v178c44-5 75-18 78-92h134c0 33-3 90-50 137s-107 56-160 60v82h-55v-84c-36-3-106-10-162-71-43-47-51-96-51-132 0-135 100-175 207-204V104c-21 0-88 11-85 111H24zm226 207c-39 13-76 26-76 83 0 43 24 75 76 78V422zm49-152c59-16 81-40 81-83 0-53-40-81-81-85v168z"/><glyph glyph-name="percent" unicode="%" horiz-adv-x="889" d="M50 569c0-108 43-190 160-190 171 0 170 149 170 200 0 93-24 183-163 183C52 762 50 621 50 569zm108 4c0 30 0 111 59 111 51 0 54-66 54-106 0-95-24-117-58-117-43 0-55 35-55 112zm352-391C510 74 552-9 669-9c172 0 171 149 171 201 0 92-24 182-163 182-167 0-167-141-167-192zm107 3c0 31 0 111 59 111 51 0 55-66 55-106 0-95-24-117-58-117-43 0-56 36-56 112zm-24 584L213-12h75l380 781h-75z"/><glyph glyph-name="ampersand" unicode="&amp;" horiz-adv-x="778" d="M559 449c0-77 0-122-29-199L384 397c38 22 140 75 140 187 0 52-29 158-216 158-196 0-221-121-221-164 0-83 63-132 87-153-25-16-62-37-99-84-44-56-52-107-52-142C23 60 139-19 296-19c122 0 188 49 234 84l56-67h187L626 150c60 95 81 179 81 299H559zm-252 26c-10 8-72 63-72 107 0 39 29 64 73 64s72-27 72-66c0-49-52-89-73-105zm132-330c-33-27-86-54-133-54-67 0-127 44-127 120 0 55 34 90 78 119l182-185z"/><glyph glyph-name="quotesingle" unicode="'" horiz-adv-x="238" d="M78 449h79l27 248H51l27-248z"/><glyph glyph-name="parenleft" unicode="(" horiz-adv-x="333" d="M164 757C108 613 62 466 62 311c0-151 44-294 101-434h109c-59 206-87 306-87 439 0 179 56 341 88 441H164z"/><glyph glyph-name="parenright" unicode=")" horiz-adv-x="333" d="M169-123c56 145 102 292 102 447 0 149-44 294-101 433H61c59-205 87-303 87-439 0-179-56-341-88-441h109z"/><glyph glyph-name="asterisk" unicode="*" horiz-adv-x="556" d="M67 465l151 20-93-122 90-54 58 142 58-141 93 51-94 123 149-23 2 106-153-18 98 118-93 55-59-141-56 138-93-51 94-119-152 22V465z"/><glyph glyph-name="plus" unicode="+" horiz-adv-x="584" d="M225 0h134v202h199v129H359v202H225V331H26V202h199V0z"/><glyph glyph-name="comma" unicode="," horiz-adv-x="278" d="M102 133L28-113h103l119 246H102z"/><glyph glyph-name="hyphen" unicode="-" horiz-adv-x="333" d="M44 208h248v113H44V208z"/><glyph glyph-name="period" unicode="." horiz-adv-x="278" d="M74 0h127v133H74V0z"/><glyph glyph-name="slash" unicode="/" horiz-adv-x="444" d="M300 718L29 0h117l269 718H300z"/><glyph glyph-name="zero" unicode="0" horiz-adv-x="556" d="M38 347c0-186 62-358 241-358 211 0 247 213 247 375 0 130-26 199-63 252-26 39-83 92-182 92C57 708 38 440 38 347zm338-8c0-95-13-232-93-232-75 0-93 110-93 230 0 17 0 125 23 195 8 21 25 60 69 60 54 0 73-62 76-81 14-46 18-128 18-172z"/><glyph glyph-name="one" unicode="1" horiz-adv-x="556" d="M95 454c76 31 134 66 163 89V0h151v698H280c-57-41-119-76-185-105V454z"/><glyph glyph-name="two" unicode="2" horiz-adv-x="556" d="M25 0h490v116c-23 0-35 0-142-3-80 0-91-1-192-4 302 243 330 336 330 408 0 108-84 190-236 190-85 0-159-25-199-76-41-52-41-102-41-131h153c0 20 8 102 88 102 52 0 83-36 83-89 0-32-9-54-48-101-37-45-73-77-105-106L25 141V0z"/><glyph glyph-name="three" unicode="3" horiz-adv-x="556" d="M22 190c0-28 3-107 64-158 46-36 117-47 168-47 145 0 253 88 253 206 0 33-8 84-57 125-32 27-60 36-83 43 31 8 134 42 134 158 0 76-56 190-235 190-75 0-147-21-194-77-35-43-38-87-41-118h153c0 59 42 87 85 87 45 0 86-27 86-83 0-101-103-101-173-104V295c73 0 172 0 172-103 0-55-34-95-90-95-83 0-90 72-90 93H22z"/><glyph glyph-name="four" unicode="4" horiz-adv-x="556" d="M296 152V0h148v152h95v115h-95l1 431H296L16 287V152h280zm10 373c0-18-2-69-2-77V264H128l178 261z"/><glyph glyph-name="five" unicode="5" horiz-adv-x="556" d="M31 172c1-27 4-68 39-111 48-57 122-76 195-76 180 0 249 134 249 253 0 140-94 222-206 222-77 0-110-31-132-50l9 173h291v114H53L37 284l145-4c5 16 21 70 89 70 67 0 93-58 93-125 0-92-49-131-103-131-71 0-82 62-82 78H31z"/><glyph glyph-name="six" unicode="6" horiz-adv-x="556" d="M519 525c-3 128-104 182-208 182-28 0-99-3-161-49C55 589 37 443 37 303c0-83 0-317 241-317 79 0 131 22 178 65 53 49 74 105 74 182 0 152-103 221-200 221-72 0-114-33-137-56 3 72 5 196 105 196 37 0 70-18 73-69h148zM287 98c-49 0-95 37-95 122 0 108 77 123 101 123 51 0 90-43 90-120 0-96-53-125-96-125z"/><glyph glyph-name="seven" unicode="7" horiz-adv-x="556" d="M37 581h321L103 0h167l240 573v124H37V581z"/><glyph glyph-name="eight" unicode="8" horiz-adv-x="556" d="M174 366c-27-9-57-19-92-52-31-29-51-67-51-122C31 80 129-11 271-11c137 0 256 75 256 203 0 35-8 69-32 104-37 53-83 64-112 72 71 11 137 70 137 153 0 109-97 189-237 189-170 0-241-110-241-195 0-108 96-138 132-149zm107 57c-56 0-90 41-90 90 0 53 40 87 91 87 47 0 93-30 93-87 0-56-43-90-94-90zm0-327c-48 0-101 33-101 104 0 60 41 103 100 103 53 0 100-37 100-101 0-78-56-106-99-106z"/><glyph glyph-name="nine" unicode="9" horiz-adv-x="556" d="M33 170C33-12 211-13 249-13c168 0 269 83 269 379 0 112-6 340-246 340-154 0-247-98-247-229 0-83 44-219 215-219 31 0 75 3 126 48 3-96-4-204-109-204-43 0-69 25-73 68H33zm234 203c-87 0-94 86-94 110 0 53 25 110 97 110 61 0 93-45 93-106 0-49-21-114-96-114z"/><glyph glyph-name="colon" unicode=":" horiz-adv-x="278" d="M76 0h126v134H76V0zm0 370h126v135H76V370z"/><glyph glyph-name="semicolon" unicode=";" horiz-adv-x="278" d="M80 370h126v135H80V370zm7-237L13-113h103l119 246H87z"/><glyph glyph-name="less" unicode="&lt;" horiz-adv-x="584" d="M26 200L558-7v141L186 267l372 133v140L26 334V200z"/><glyph glyph-name="equal" unicode="=" horiz-adv-x="584" d="M26 318h532v129H26V318zm0-232h532v129H26V86z"/><glyph glyph-name="greater" unicode="&gt;" horiz-adv-x="584" d="M559 200v134L26 540V400l372-133L26 134V-7l533 207z"/><glyph glyph-name="question" unicode="?" horiz-adv-x="500" d="M256 162v81c0 33 7 48 60 96l57 51c11 11 21 20 52 63 27 39 28 77 28 96 0 133-120 187-238 187-80 0-130-9-169-20V612c56 15 86 24 133 24 112 0 120-75 120-99 0-51-36-100-76-145l-44-49c-37-41-37-65-37-88v-93h114zM139 0h120v120H139V0z"/><glyph glyph-name="at" unicode="@" horiz-adv-x="975" d="M773 135C654 42 551 40 506 40c-188 0-323 116-323 308 0 216 155 332 334 332 124 0 271-62 271-238 0-120-67-197-118-197-17 0-34 11-34 35 0 19 6 42 13 61l60 206h-99l-13-45c-4 11-8 21-23 34-23 20-55 27-82 27-115 0-199-120-199-237 0-97 58-153 134-153 39 0 96 14 133 85 1-12 2-28 17-47 21-27 53-32 76-32 116 0 204 117 204 258 0 199-160 301-338 301-215 0-401-146-401-386 0-219 157-370 384-370C603-18 694 9 807 90l-34 45zM411 311c0 89 52 180 105 180 33 0 49-24 49-47 0-4-10-80-37-139-11-21-30-60-67-60-48 0-50 56-50 66z"/><glyph glyph-name="A" unicode="A" horiz-adv-x="722" d="M266 723L5 0h148l54 156h286L545 0h156L450 723H266zm-19-450l107 308 100-308H247z"/><glyph glyph-name="B" unicode="B" horiz-adv-x="667" d="M68 0h270c28 0 126 0 182 29 56 28 106 85 106 170 0 75-44 157-153 176v2c43 11 77 44 82 49 37 35 42 81 42 108 0 42-15 112-81 154-56 35-135 34-178 34H68V0zm148 611h105c52 0 127 0 127-90 0-93-80-93-124-93H216v183zm0-295h89c75 0 167 0 167-103 0-97-80-97-151-97H216v200z"/><glyph glyph-name="C" unicode="C" horiz-adv-x="667" d="M634 487c0 145-112 240-269 240-204 0-331-153-331-381 0-179 81-363 330-363 66 0 148 15 211 81 58 61 62 127 65 170H477c-3-96-66-137-130-137-151 0-151 205-151 248 0 149 48 269 163 269 105 0 114-103 117-127h158z"/><glyph glyph-name="D" unicode="D" horiz-adv-x="722" d="M65 0h225c73 0 103 3 130 8 137 24 256 142 256 363 0 103-32 217-123 284-87 64-209 65-249 65l-239 1V0zm157 604c89 4 130-1 162-10 97-27 132-121 132-223 0-35-4-143-65-204-45-45-101-50-168-50-19 0-44 1-61 2v485z"/><glyph glyph-name="E" unicode="E" horiz-adv-x="611" d="M74 0h495v120H229v195h308v118H229v172h329v118H74V0z"/><glyph glyph-name="F" unicode="F" horiz-adv-x="556" d="M69 0h155v308h290v120H224v178h311v116H69V0z"/><glyph glyph-name="G" unicode="G" horiz-adv-x="778" d="M715 501c0 39-5 96-52 151-57 65-153 91-246 91-219 0-379-137-379-393 0-77 16-190 96-270 56-56 143-96 307-96 145 0 219 24 264 40v361H410V265h140V113c-17-5-43-14-118-14-87 0-134 22-170 62-54 56-60 145-60 194 0 111 35 275 211 275 34 0 92-8 121-56 19-28 19-54 20-73h161z"/><glyph glyph-name="H" unicode="H" horiz-adv-x="722" d="M67 0h155v317h275V0h155v723H495V434H222v289H67V0z"/><glyph glyph-name="I" unicode="I" horiz-adv-x="278" d="M60 0h155v725H60V0z"/><glyph glyph-name="J" unicode="J" horiz-adv-x="556" d="M9 234c0-37 4-101 38-153C94 9 159-7 236-7c71 0 112 14 140 31 92 57 112 143 112 255v444H331V280c0-39 1-82-6-113-5-19-19-61-79-61-64 0-82 49-85 128H9z"/><glyph glyph-name="K" unicode="K" horiz-adv-x="667" d="M67 0h155v368L475 0h193L380 399l265 324H464L222 410v311H67V0z"/><glyph glyph-name="L" unicode="L" horiz-adv-x="556" d="M69 0h468v123H227v599H69V0z"/><glyph glyph-name="M" unicode="M" horiz-adv-x="944" d="M60 0h145v620L398 0h128l197 620V0h154v723H631L466 197 313 723H60V0z"/><glyph glyph-name="N" unicode="N" horiz-adv-x="778" d="M72 0h146v600L498 0h213v723H567V154L296 723H72V0z"/><glyph glyph-name="O" unicode="O" horiz-adv-x="778" d="M42 351c0-67 10-186 89-270 67-69 160-99 256-99 60 0 178 13 257 103 59 67 91 178 91 283 0 72-15 184-92 272-72 80-176 98-254 98-260 0-347-195-347-387zm162 5c0 83 12 159 53 210 29 37 74 61 133 61 75 0 134-39 165-128 15-44 18-94 18-129 0-115-25-170-49-207-29-45-74-67-135-67-72 0-108 27-131 58-43 56-54 133-54 202z"/><glyph glyph-name="P" unicode="P" horiz-adv-x="611" d="M65 0h157v281h105c38 0 111 0 164 34 57 37 92 108 92 192 0 37-5 88-44 135-59 72-148 79-251 79H65V0zm153 604h78c44 0 127 1 127-98 0-110-93-110-143-110h-62v208z"/><glyph glyph-name="Q" unicode="Q" horiz-adv-x="778" d="M761 111c-63 3-129 0-162-7 35 32 109 105 109 269 0 237-138 364-326 364-245 0-348-185-348-381C34 240 82-11 352-11c17 0 65 3 114 6s98 5 117 5c47 0 133-2 178-2v113zM194 365c0 132 46 262 182 262 70 0 112-39 130-67 23-33 45-82 45-185 0-116-27-274-180-274-147 0-177 163-177 264z"/><glyph glyph-name="R" unicode="R" horiz-adv-x="667" d="M60 0h158v292h136c26 0 64 0 78-41 11-27 31-212 39-251h171c-8 12-14 20-22 52-5 20-11 55-22 140-13 94-21 155-130 166 36 11 151 41 151 177 0 47-18 100-63 139-58 51-138 49-219 49H60V0zm153 609h104c49 0 78 0 102-17 15-9 38-32 38-81 0-51-28-75-40-84-25-20-60-20-79-20H213v202z"/><glyph glyph-name="S" unicode="S" horiz-adv-x="667" d="M35 231c0-71 4-248 280-248 200 0 308 105 308 235 0 141-123 176-248 205-104 27-157 37-157 105 0 60 47 98 119 98 108 0 114-85 117-110h149c0 25 0 83-41 134-53 68-144 85-218 85-201 0-286-105-286-224 0-125 94-176 266-219 92-21 137-34 137-97 0-61-53-101-137-101-132 0-131 102-131 137H35z"/><glyph glyph-name="T" unicode="T" horiz-adv-x="611" d="M229 0h156v603h215v120H14V603h215V0z"/><glyph glyph-name="U" unicode="U" horiz-adv-x="778" d="M72 721V289c0-68 2-122 37-178C178 2 308-14 381-14c147 0 317 68 317 284v451H547V289c0-73-8-100-23-123-40-62-115-63-140-63-151 0-157 98-157 178v440H72z"/><glyph glyph-name="V" unicode="V" horiz-adv-x="722" d="M12 720L278 0h169l266 720H560L370 153 181 720H12z"/><glyph glyph-name="W" unicode="W" horiz-adv-x="1000" d="M15 720L191-2h176l141 552L639-2h172l184 722H847L730 179 603 720H428L287 179 175 720H15z"/><glyph glyph-name="X" unicode="X" horiz-adv-x="722" d="M30 723l237-349L13 0h166l173 272L513 0h190L451 375l238 348H523L367 477 221 723H30z"/><glyph glyph-name="Y" unicode="Y" horiz-adv-x="667" d="M16 720l244-455V0h153v263l244 457H498L346 391 197 720H16z"/><glyph glyph-name="Z" unicode="Z" horiz-adv-x="611" d="M27 0h554v119l-385-6 377 470v137H50V602l355 3L27 132V0z"/><glyph glyph-name="bracketleft" unicode="[" horiz-adv-x="333" d="M287 752H58v-875h229v93H178v690h109v92z"/><glyph glyph-name="backslash" unicode="\" horiz-adv-x="278" d="M29 718L298 0h117L144 718H29z"/><glyph glyph-name="bracketright" unicode="]" horiz-adv-x="333" d="M46 660h109V-30H46v-93h229v875H46v-92z"/><glyph glyph-name="asciicircum" unicode="^" horiz-adv-x="584" d="M51 264h138l100 272 103-272h138L349 697H232L51 264z"/><glyph glyph-name="underscore" unicode="_" horiz-adv-x="500" d="M0-125h500v50H0v-50z"/><glyph glyph-name="grave" unicode="`" horiz-adv-x="278" d="M128 730H-12l139-145h85l-84 145z"/><glyph glyph-name="a" unicode="a" horiz-adv-x="556" d="M502 0c-9 43-12 85-12 128l-1 203c0 23 0 84-35 124-51 59-137 65-180 65-48 0-106-8-153-41-52-37-57-93-57-119h145c0 12 0 28 11 45 13 19 35 28 56 28 14 0 53-6 66-42 7-19 7-34 7-67-48 0-139 1-200-28C56 253 42 179 42 139S55 59 86 28c20-19 53-40 126-40 29 0 95 1 151 81 0-15 0-38 5-69h134zM349 238c0-55-1-93-28-125-15-16-36-29-63-29-49 0-72 37-72 72 0 60 67 90 163 82z"/><glyph glyph-name="b" unicode="b" horiz-adv-x="611" d="M60 0h143c3 31 4 55 5 71 45-79 127-81 152-81 100 0 211 67 211 255 0 170-97 267-220 267-26 0-93-2-143-68v277H60V0zm360 240c0-26 0-153-102-153-68 0-116 54-116 170 0 32 0 156 109 156 107 0 109-133 109-173z"/><glyph glyph-name="c" unicode="c" horiz-adv-x="500" d="M477 326c0 136-113 189-206 189-67 0-236-32-236-262 0-81 20-148 64-199 47-52 104-67 172-67 64 0 108 16 144 47 59 48 62 111 65 149H334c-5-90-53-97-68-97-11 0-25 2-40 17-34 36-37 128-37 155 0 55 9 161 78 161 57 0 62-74 65-93h145z"/><glyph glyph-name="d" unicode="d" horiz-adv-x="611" d="M399 443c-13 19-51 69-142 69-132 0-223-104-223-271C34 82 113-10 249-10c23 0 61 2 98 26 31 20 40 38 51 57l4-73h150c-3 19-4 51-4 82v640H399V443zM184 245c0 51 11 170 110 170 68 0 110-53 110-153 0-25-1-76-24-119-16-31-51-57-94-57-75 0-102 75-102 159z"/><glyph glyph-name="e" unicode="e" horiz-adv-x="556" d="M523 215c3 42 4 117-30 185-45 93-132 122-204 122-56 0-103-15-142-42C62 421 42 324 42 241c0-81 18-149 65-197 52-55 135-63 178-63 75 0 140 20 177 59 41 43 45 86 48 110H375c-15-56-51-70-88-70-103 0-103 102-103 135h339zm-334 93c3 59 31 113 95 113 86 0 88-90 88-113H189z"/><glyph glyph-name="f" unicode="f" horiz-adv-x="333" d="M75 0h147v400h94v105h-94v59c0 27 0 66 76 66 12 0 16 0 31-3v103c-43 5-69 5-80 5-144 0-174-72-174-161v-69H0V400h75V0z"/><glyph glyph-name="g" unicode="g" horiz-adv-x="611" d="M405 503l-5-67c-16 22-47 72-141 72-144 0-216-122-216-250 0-123 68-248 213-248 37 0 88 7 136 69 0-78-1-95-7-120-11-45-48-66-92-66-80 0-85 55-88 70H63c8-152 150-162 222-162 97 0 252 17 252 204v373c0 51 3 85 7 125H405zM191 258c0 108 46 151 102 151 91 0 101-97 101-154 0-21 0-144-104-144-99 0-99 122-99 147z"/><glyph glyph-name="h" unicode="h" horiz-adv-x="611" d="M69 0h149l-1 309c0 79 53 103 95 103 83 0 83-81 83-110V0h147v307c0 67-14 112-33 137-24 31-72 68-147 68-91 0-130-52-146-76v286H69V0z"/><glyph glyph-name="i" unicode="i" horiz-adv-x="278" d="M60 593h158v129H60V593zM65 0h148v506H65V0z"/><glyph glyph-name="j" unicode="j" horiz-adv-x="278" d="M-2-194c23-4 42-4 50-4 126 0 165 58 165 153v552H65V-8c0-27 0-89-67-86v-100zm62 787h158v129H60V593z"/><glyph glyph-name="k" unicode="k" horiz-adv-x="556" d="M67 0h147v275L370 0h175L361 288l173 220H367L214 297v426H67V0z"/><glyph glyph-name="l" unicode="l" horiz-adv-x="278" d="M65 0h148v723H65V0z"/><glyph glyph-name="m" unicode="m" horiz-adv-x="944" d="M68 0h149v297c0 35 0 114 93 114 82 0 83-72 83-111V0h149v253c0 76 2 158 91 158 77 0 85-60 85-114V0h149v285c0 44 2 106-25 149-10 21-53 81-154 81-52 0-119-14-162-94-11 24-43 95-159 95-102 0-140-54-156-76l-5 65H63c3-32 5-63 5-95V0z"/><glyph glyph-name="n" unicode="n" horiz-adv-x="611" d="M67 0h149v296c0 39 9 64 18 77 16 24 45 39 77 39 39 0 61-20 72-43 8-16 8-34 8-55V0h151v273c0 95-3 119-14 151-13 35-54 95-154 95-109 0-151-65-164-88l-4 76H64c3-36 3-89 3-92V0z"/><glyph glyph-name="o" unicode="o" horiz-adv-x="611" d="M42 248C42 71 156-18 300-18c184 0 265 128 265 270 0 141-78 265-262 265-199 0-261-147-261-269zm152-1c0 46 1 171 109 171 99 0 111-93 111-160 0-134-44-173-109-173-73 0-111 49-111 162z"/><glyph glyph-name="p" unicode="p" horiz-adv-x="611" d="M60 505v-699h151V58c13-16 50-65 141-65 146 0 220 127 220 270 0 155-79 252-210 252-23 0-108-1-154-82l-4 72H60zM314 90c-108 0-110 129-110 158 0 137 68 172 116 172 88 0 102-103 102-163 0-100-37-167-108-167z"/><glyph glyph-name="q" unicode="q" horiz-adv-x="611" d="M407 506l-5-73c-10 20-50 83-153 83-100 0-213-63-213-257C36 66 157-7 258-7c85 0 125 48 140 66v-251h152v601c0 20 3 88 3 97H407zM187 255c0 76 18 164 103 164 101 0 116-112 116-167S394 91 298 91c-21 0-55 4-78 36-29 39-33 95-33 128z"/><glyph glyph-name="r" unicode="r" horiz-adv-x="389" d="M65 0h148v249c0 64 10 139 159 126v133c-120 5-153-55-172-98l-3 97H58c3-29 7-102 7-126V0z"/><glyph glyph-name="s" unicode="s" horiz-adv-x="500" d="M29 146c1-24 4-64 37-99 47-48 108-62 173-62 157 0 232 87 232 174 0 69-43 116-135 141l-91 25c-44 12-69 18-69 53 0 31 30 50 70 50 22 0 69-4 72-60h135c-3 101-89 149-192 149-131 0-221-60-221-158 0-105 87-126 128-140l92-25c59-16 70-34 70-57 0-31-25-60-78-60-62 0-81 37-84 69H29z"/><glyph glyph-name="t" unicode="t" horiz-adv-x="389" d="M362 104c-19-3-27-3-50-3-66 0-67 30-67 75v228h120v98H245v153L98 601v-99H1v-98h97V127C98 85 99-9 247-9c24 0 67 3 115 16v97z"/><glyph glyph-name="u" unicode="u" horiz-adv-x="611" d="M60 505V191c0-25 0-95 33-136 28-37 84-68 152-68 96 0 133 59 149 80l5-67h144c-3 15-3 22-4 37 0 14 0 25-3 135v333H384V250c0-85 0-157-95-157-80 0-79 67-79 111v301H60z"/><glyph glyph-name="v" unicode="v" horiz-adv-x="556" d="M7 505L192 0h164l182 505H395L279 162 165 505H7z"/><glyph glyph-name="w" unicode="w" horiz-adv-x="889" d="M5 505L170 0h163l106 374L543 0h161l173 505H730l-99-381-106 381H362L255 124l-93 381H5z"/><glyph glyph-name="x" unicode="x" horiz-adv-x="556" d="M16 505l162-234L9 0h155l103 185L369 0h175L375 259l164 246H385l-99-165-95 165H16z"/><glyph glyph-name="y" unicode="y" horiz-adv-x="556" d="M14 505L208-2l-64-190h149L354 9l191 496H398L285 155 174 505H14z"/><glyph glyph-name="z" unicode="z" horiz-adv-x="500" d="M32 0h431v102H197l256 276v127H39v-99h249L32 130V0z"/><glyph glyph-name="braceleft" unicode="{" horiz-adv-x="333" d="M103 449c0-51-8-77-35-101-27-23-64-31-83-34v-86c117-19 118-82 118-135V58c0-116 18-147 50-176 43-41 102-59 195-63v82C236-94 237-10 237 51v37c0 48-4 98-41 135-37 39-85 44-117 48 133 11 158 96 158 183v36c0 61-1 143 111 151v82c-240-11-245-130-245-239v-35z"/><glyph glyph-name="bar" unicode="|" horiz-adv-x="278" d="M73 750V-250h132V750H73z"/><glyph glyph-name="braceright" unicode="}" horiz-adv-x="333" d="M230 93c0 51 3 116 118 135v86c-15 3-61 10-86 35-24 24-32 53-32 100v35c0 111-8 228-245 239v-82c112-8 111-90 111-151v-36c0-74 15-104 39-130 40-45 84-50 119-53-32-4-80-9-117-48-39-39-41-95-41-135V51C96-10 97-94-15-99v-82C226-170 230-51 230 58v35z"/><glyph glyph-name="asciitilde" unicode="~" horiz-adv-x="584" d="M102 173c5 35 24 61 59 61 20 0 58-12 71-17 79-25 144-47 179-47 115 0 151 114 156 191h-85c-3-13-10-60-58-60-27 0-44 5-145 37-60 19-83 25-106 25-83 0-147-72-155-190h84z"/><glyph glyph-name="uni00A0" horiz-adv-x="278"/><glyph glyph-name="exclamdown" unicode="¡" horiz-adv-x="389" d="M149 337l-12-527h134l-19 527H149zm115 197H137V400h127v134z"/><glyph glyph-name="cent" unicode="¢" horiz-adv-x="556" d="M438 637h-69l-32-125c-7 1-14 2-33 2-159 0-241-111-241-264C63 98 145 20 209 1l-37-149h68l34 136c23-3 83-4 139 25 87 47 93 133 96 170H363c-5-85-48-97-69-97-58 0-77 92-77 170 0 43 5 163 80 163 58 0 64-74 64-93h144c0 34-1 128-103 168l36 143z"/><glyph glyph-name="sterling" unicode="£" horiz-adv-x="556" d="M30 0h491v116H257v207h169v112H257v102c0 16 0 87 67 87 60 0 66-61 66-85h150c-5 68-18 186-205 186-84 0-129-23-158-43-72-48-73-121-73-159v-88H19V323h84V116H30V0z"/><glyph glyph-name="currency" unicode="¤" horiz-adv-x="556" d="M20 169l77-78 67 67c23-12 57-31 113-31s89 18 112 31l67-67 78 78-67 66c11 19 31 54 31 113 0 56-19 90-31 113l66 67-77 77-66-67c-25 13-62 32-115 32-48 0-80-16-111-31l-67 67-78-78 68-67c-12-23-32-57-32-113s19-89 32-112l-67-67zm257 285c58 0 106-47 106-106 0-58-48-106-106-106-59 0-106 48-106 106 0 59 47 106 106 106z"/><glyph glyph-name="yen" unicode="¥" horiz-adv-x="556" d="M204 0h152l1 138h158v74H356v70h159v74H396l164 364H400L289 391 181 720H0l166-364H41v-74h163v-71H41v-74h163V0z"/><glyph glyph-name="brokenbar" unicode="¦" horiz-adv-x="278" d="M73 675V325h132v350H73zm0-500v-350h132v350H73z"/><glyph glyph-name="section" unicode="§" horiz-adv-x="556" d="M90 10c87-29 156-30 171-30 120 0 201 64 201 157 0 62-44 101-84 120 43 20 83 60 83 125 0 55-22 102-102 129l-88 29c-12 6-45 18-45 51 0 13 5 23 14 31 13 11 33 12 44 12 57 0 114-24 146-39l3 103c-24 9-75 30-154 30-116 0-192-52-192-140 0-75 55-104 76-112-67-27-91-79-91-126 0-51 29-109 102-134l88-31c27-9 58-20 58-53 0-39-41-53-84-53-60 0-115 28-143 43L90 10zm177 282c-28 8-76 27-76 74 0 40 32 63 71 74 21-3 74-16 74-67 0-24-16-62-69-81z"/><glyph glyph-name="dieresis" unicode="¨" horiz-adv-x="278" d="M172 599h102v118H172V599zM0 599h102v118H0V599z"/><glyph glyph-name="copyright" unicode="©" horiz-adv-x="800" d="M398 738C193 738 21 573 21 360 21 151 190-18 398-18c209 0 378 169 378 378 0 213-172 378-378 378zm0-62c174 0 317-141 317-316 0-173-141-316-317-316C223 44 82 187 82 360c0 176 143 316 316 316zm183-237c0 88-73 145-173 145-130 0-212-91-212-230 0-109 55-219 212-219 47 0 93 11 132 46 40 39 44 81 45 105H480c-1-59-43-82-80-82-101 0-101 128-101 154 0 27 0 158 105 158 67 0 75-62 75-77h102z"/><glyph glyph-name="ordfeminine" unicode="ª" horiz-adv-x="334" d="M318 392c-5 23-8 54-8 77v122c0 63-31 113-140 113-56 0-136-17-136-96h94c0 36 27 44 44 44 48 0 47-39 47-66-29 0-76 0-120-12-51-15-80-55-80-99 0-38 23-90 111-90 61 0 82 28 98 49 0-11 0-22 3-42h87zm-99 143c0-28-1-92-58-92-29 0-48 18-48 42 0 39 46 54 106 50z"/><glyph glyph-name="guillemotleft" unicode="«" horiz-adv-x="556" d="M137 56h132l-95 196 95 190H137L28 252 137 56zm243 0h132l-95 196 95 190H380L271 252 380 56z"/><glyph glyph-name="logicalnot" unicode="¬" horiz-adv-x="584" d="M24 318h399V85h134v363H24V318z"/><glyph glyph-name="uni00AD" unicode="­" horiz-adv-x="333" d="M44 208h248v113H44V208z"/><glyph glyph-name="registered" unicode="®" horiz-adv-x="800" d="M400 738C197 738 22 573 22 360 22 149 194-18 400-18c208 0 378 170 378 378 0 213-174 378-378 378zm-1-61c174 0 318-140 318-316 0-172-142-318-318-318C226 43 83 185 83 361c0 178 144 316 316 316zM258 148h82v170h74c31 0 37-12 44-36 0-6 13-113 16-134h90c-11 22-17 77-22 112-8 52-11 93-70 96 29 11 80 26 80 104 0 113-97 112-148 112H258V148zm80 356h68c22 0 62 0 62-58 0-21-11-60-64-60h-66v118z"/><glyph glyph-name="macron" unicode="¯" horiz-adv-x="278" d="M306 624v68H-36v-68h342z"/><glyph glyph-name="degree" unicode="°" horiz-adv-x="400" d="M198 708c-92 0-169-75-169-169s77-169 169-169c94 0 169 75 169 169s-77 169-169 169zm0-103c37 0 67-30 67-66s-28-66-67-66c-36 0-66 29-66 66s31 66 66 66z"/><glyph glyph-name="plusminus" unicode="±" horiz-adv-x="584" d="M225 131h134v149h199v130H359v156H225V410H26V280h199V131zM26-33h532V97H26V-33z"/><glyph glyph-name="twosuperior" unicode="²" horiz-adv-x="333" d="M112 585c3 32 19 61 59 61 32 0 53-23 53-51 0-11-3-26-18-46-23-31-49-54-82-81L7 369v-84h318v69c-72 0-164-4-217-4 47 35 80 61 123 101 72 70 91 95 91 144 0 68-57 114-152 114-48 0-100-13-131-46-27-31-26-61-26-78h99z"/><glyph glyph-name="threesuperior" unicode="³" horiz-adv-x="333" d="M6 395c0-19 0-50 27-81 34-40 105-42 124-42 93 0 164 53 164 124 0 43-23 81-91 100 21 5 87 26 87 95 0 52-47 114-151 114-68 0-109-25-128-46-23-24-23-52-26-71h99c-1 31 22 52 55 52 31 0 57-17 57-50 0-55-63-62-112-62v-70c52 0 111-1 111-62 0-43-31-57-58-57-52 0-59 43-59 56H6z"/><glyph glyph-name="acute" unicode="´" horiz-adv-x="278" d="M289 730H155L72 585h80l137 145z"/><glyph glyph-name="mu" unicode="µ" horiz-adv-x="611" d="M70-212h126V41c13-18 39-50 101-50 68 0 98 45 114 69V0h110v505H392V258c0-68-3-160-98-160-87 0-95 70-95 163v244H71l-1-717z"/><glyph glyph-name="paragraph" unicode="¶" horiz-adv-x="556" d="M571 609v103H242C53 712-22 583-22 462c0-48 11-121 70-175 45-41 92-46 127-49v-425h125v796h95v-796h125v796h51z"/><glyph glyph-name="periodcentered" unicode="·" horiz-adv-x="278" d="M74 213h127v133H74V213z"/><glyph glyph-name="cedilla" unicode="¸" horiz-adv-x="278" d="M15-195c13-7 50-22 97-22 46 0 126 18 126 91 0 27-18 72-84 72-16 0-24-1-35-4l48 64h-47L56-84l20-21c11 4 22 9 41 9 35 0 44-22 44-37 0-23-20-38-55-38-21 0-47 7-70 18l-21-42z"/><glyph glyph-name="onesuperior" unicode="¹" horiz-adv-x="333" d="M48 553c31 11 71 31 106 54V281h98v419h-84c-16-11-63-40-120-63v-84z"/><glyph glyph-name="ordmasculine" unicode="º" horiz-adv-x="367" d="M14 541c0-75 42-160 168-160 116 0 172 75 172 162 0 91-55 159-170 159-108 0-170-64-170-161zm99-1c0 40 6 103 72 103 52 0 71-38 71-98 0-72-24-102-72-102-47 0-71 32-71 97z"/><glyph glyph-name="guillemotright" unicode="»" horiz-adv-x="556" d="M164 56l109 189-109 197H32l95-197L32 56h132zm243 0l109 189-109 197H275l95-197-95-189h132z"/><glyph glyph-name="onequarter" unicode="¼" horiz-adv-x="834" d="M665 91V0h98v91h63v69h-62l2 259h-98L486 172V91h179zm9 224l-4-157H559l115 157zM142-28h82l417 753h-83L142-28zM9 553c31 11 71 31 106 54V281h98v419h-84c-16-11-63-40-120-63v-84z"/><glyph glyph-name="onehalf" unicode="½" horiz-adv-x="834" d="M140-28h82l417 753h-82L140-28zM22 553c31 11 71 31 106 54V281h98v419h-84c-16-11-63-40-120-63v-84zm576-253c3 32 19 61 60 61 31 0 52-23 52-51 0-11-3-26-18-46-23-29-49-54-81-81L493 85V0h318v69c-72 0-164-1-217-4 47 36 80 61 123 101 73 70 91 95 91 144 0 68-57 114-152 114-47 0-101-11-130-46-27-31-27-61-27-78h99z"/><glyph glyph-name="threequarters" unicode="¾" horiz-adv-x="834" d="M653 91V0h99v91h62v69h-62l3 259h-99L474 172V91h179zm2 224c0-7-1-40-1-46l-3-111H540l115 157zM186-28h82l416 753h-82L186-28zM24 395c0-19 0-50 27-81 34-40 105-42 124-42 93 0 164 53 164 124 0 43-23 81-91 100 21 5 87 26 87 95 0 52-47 114-151 114-68 0-109-25-128-46-23-24-23-52-26-71h98c0 31 23 52 56 52 31 0 57-17 57-50 0-55-62-62-113-62v-70c52 0 111-1 111-62 0-43-30-57-57-57-53 0-57 43-60 56H24z"/><glyph glyph-name="questiondown" unicode="¿" horiz-adv-x="500" d="M239 366v-81c0-33-8-48-61-96l-56-51c-11-11-22-20-53-64C42 37 42-2 42-21c0-133 119-187 238-187 80 0 131 10 168 19v105c-56-15-86-24-133-24-112 0-120 75-120 99 0 51 36 98 76 145l44 49c37 43 37 67 37 88v93H239zm116 162H235V408h120v120z"/><glyph glyph-name="Agrave" unicode="À" horiz-adv-x="722" d="M266 723L5 0h148l54 156h286L545 0h156L450 723H266zm-19-450l107 308 100-308H247zm103 645H210l139-145h85l-84 145z"/><glyph glyph-name="Aacute" unicode="Á" horiz-adv-x="722" d="M266 723L5 0h148l54 156h286L545 0h156L450 723H266zm-19-450l107 308 100-308H247zm264 645H377l-83-145h80l137 145z"/><glyph glyph-name="Acircumflex" unicode="Â" horiz-adv-x="722" d="M266 723L5 0h148l54 156h286L545 0h156L450 723H266zm-19-450l107 308 100-308H247zm-47 500h90l70 85 68-85h89L413 918H310L200 773z"/><glyph glyph-name="Atilde" unicode="Ã" horiz-adv-x="722" d="M266 723L5 0h148l54 156h286L545 0h156L450 723H266zm-19-450l107 308 100-308H247zm-15 508c13 39 36 45 53 45 13 0 33-6 45-10l43-16c11-4 29-11 52-11 35 0 57 14 72 29 28 27 36 57 40 93h-51c-5-25-18-46-47-46-17 0-27 3-34 6l-57 22c-3 1-29 11-50 11-60 0-107-48-118-123h52z"/><glyph glyph-name="Adieresis" unicode="Ä" horiz-adv-x="722" d="M266 723L5 0h148l54 156h286L545 0h156L450 723H266zm-19-450l107 308 100-308H247zm147 504h102v118H394V777zm-172 0h102v118H222V777z"/><glyph glyph-name="Aring" unicode="Å" horiz-adv-x="722" d="M266 723L5 0h148l54 156h286L545 0h156L450 723H266zm-19-450l107 308 100-308H247zm114 665c-56 0-101-46-101-102 0-57 46-102 101-102 56 0 101 46 101 102s-42 102-101 102zm0-48c31 0 54-25 54-54s-23-53-54-53c-29 0-53 24-53 53 0 31 24 54 53 54z"/><glyph glyph-name="AE" unicode="Æ" horiz-adv-x="1000" d="M-8 0h167l79 157h272L532 0h416v120H674l-28 190h275v116H630l-26 178h335v117H392L-8 0zm307 271l154 314 42-314H299z"/><glyph glyph-name="Ccedilla" unicode="Ç" horiz-adv-x="667" d="M477 234c-3-96-66-137-130-137-151 0-151 205-151 248 0 149 48 269 163 269 105 0 114-103 117-127h158c0 145-112 240-269 240-204 0-331-153-331-381 0-82 15-186 88-269 43-48 105-82 198-91l-52-74 20-21c11 4 22 9 41 9 35 0 45-22 45-37 0-23-21-38-56-38-21 0-46 7-70 18l-21-42c13-7 50-22 97-22 46 0 126 18 126 91 0 27-16 72-83 72-17 0-25-1-36-4l34 45c32 0 100 3 164 43 102 65 108 158 111 208H477z"/><glyph glyph-name="Egrave" unicode="È" horiz-adv-x="611" d="M74 0h495v120H229v195h308v118H229v172h329v118H74V0zm221 918H155l139-145h85l-84 145z"/><glyph glyph-name="Eacute" unicode="É" horiz-adv-x="611" d="M74 0h495v120H229v195h308v118H229v172h329v118H74V0zm382 918H322l-83-145h80l137 145z"/><glyph glyph-name="Ecircumflex" unicode="Ê" horiz-adv-x="611" d="M74 0h495v120H229v195h308v118H229v172h329v118H74V0zm71 773h90l70 85 68-85h89L358 918H255L145 773z"/><glyph glyph-name="Edieresis" unicode="Ë" horiz-adv-x="611" d="M74 0h495v120H229v195h308v118H229v172h329v118H74V0zm265 777h102v118H339V777zm-172 0h102v118H167V777z"/><glyph glyph-name="Igrave" unicode="Ì" horiz-adv-x="278" d="M60 0h155v725H60V0zm68 918H-12l139-145h85l-84 145z"/><glyph glyph-name="Iacute" unicode="Í" horiz-adv-x="278" d="M60 0h155v725H60V0zm229 918H155L72 773h80l137 145z"/><glyph glyph-name="Icircumflex" unicode="Î" horiz-adv-x="278" d="M60 0h155v725H60V0zm-82 773h90l70 85 68-85h89L191 918H88L-22 773z"/><glyph glyph-name="Idieresis" unicode="Ï" horiz-adv-x="278" d="M60 0h155v725H60V0zm112 777h102v118H172V777zM0 777h102v118H0V777z"/><glyph glyph-name="Eth" unicode="Ð" horiz-adv-x="722" d="M65 0h225c73 0 103 3 130 8 137 24 256 142 256 363 0 103-32 217-123 284-87 64-209 65-249 65l-239 1V440H0v-87h65V0zm157 353h145v87H222v164c89 4 130-1 162-10 97-27 132-121 132-223 0-35-4-143-65-204-45-45-101-50-168-50-19 0-44 1-61 2v234z"/><glyph glyph-name="Ntilde" unicode="Ñ" horiz-adv-x="778" d="M72 0h146v600L498 0h213v723H567V154L296 723H72V0zm188 781c13 39 36 45 53 45 13 0 33-6 45-10l43-16c11-4 29-11 52-11 35 0 57 14 72 29 28 27 36 57 40 93h-51c-5-25-18-46-47-46-17 0-27 3-34 6l-57 22c-3 1-29 11-50 11-60 0-107-48-118-123h52z"/><glyph glyph-name="Ograve" unicode="Ò" horiz-adv-x="778" d="M42 351c0-67 10-186 89-270 67-69 160-99 256-99 60 0 178 13 257 103 59 67 91 178 91 283 0 72-15 184-92 272-72 80-176 98-254 98-260 0-347-195-347-387zm162 5c0 83 12 159 53 210 29 37 74 61 133 61 75 0 134-39 165-128 15-44 18-94 18-129 0-115-25-170-49-207-29-45-74-67-135-67-72 0-108 27-131 58-43 56-54 133-54 202zm174 562H238l139-145h85l-84 145z"/><glyph glyph-name="Oacute" unicode="Ó" horiz-adv-x="778" d="M42 351c0-67 10-186 89-270 67-69 160-99 256-99 60 0 178 13 257 103 59 67 91 178 91 283 0 72-15 184-92 272-72 80-176 98-254 98-260 0-347-195-347-387zm162 5c0 83 12 159 53 210 29 37 74 61 133 61 75 0 134-39 165-128 15-44 18-94 18-129 0-115-25-170-49-207-29-45-74-67-135-67-72 0-108 27-131 58-43 56-54 133-54 202zm335 562H405l-83-145h80l137 145z"/><glyph glyph-name="Ocircumflex" unicode="Ô" horiz-adv-x="778" d="M42 351c0-67 10-186 89-270 67-69 160-99 256-99 60 0 178 13 257 103 59 67 91 178 91 283 0 72-15 184-92 272-72 80-176 98-254 98-260 0-347-195-347-387zm162 5c0 83 12 159 53 210 29 37 74 61 133 61 75 0 134-39 165-128 15-44 18-94 18-129 0-115-25-170-49-207-29-45-74-67-135-67-72 0-108 27-131 58-43 56-54 133-54 202zm24 417h90l70 85 68-85h89L441 918H338L228 773z"/><glyph glyph-name="Otilde" unicode="Õ" horiz-adv-x="778" d="M42 351c0-67 10-186 89-270 67-69 160-99 256-99 60 0 178 13 257 103 59 67 91 178 91 283 0 72-15 184-92 272-72 80-176 98-254 98-260 0-347-195-347-387zm162 5c0 83 12 159 53 210 29 37 74 61 133 61 75 0 134-39 165-128 15-44 18-94 18-129 0-115-25-170-49-207-29-45-74-67-135-67-72 0-108 27-131 58-43 56-54 133-54 202zm56 425c13 39 36 45 53 45 13 0 33-6 45-10l43-16c11-4 29-11 52-11 35 0 57 14 72 29 28 27 36 57 40 93h-51c-5-25-18-46-47-46-17 0-27 3-34 6l-57 22c-3 1-29 11-50 11-60 0-107-48-118-123h52z"/><glyph glyph-name="Odieresis" unicode="Ö" horiz-adv-x="778" d="M42 351c0-67 10-186 89-270 67-69 160-99 256-99 60 0 178 13 257 103 59 67 91 178 91 283 0 72-15 184-92 272-72 80-176 98-254 98-260 0-347-195-347-387zm162 5c0 83 12 159 53 210 29 37 74 61 133 61 75 0 134-39 165-128 15-44 18-94 18-129 0-115-25-170-49-207-29-45-74-67-135-67-72 0-108 27-131 58-43 56-54 133-54 202zm218 421h102v118H422V777zm-172 0h102v118H250V777z"/><glyph glyph-name="multiply" unicode="×" horiz-adv-x="584" d="M33 99l92-92 167 168L459 7l92 92-167 167 167 168-92 92-167-168-167 168-92-92 167-168L33 99z"/><glyph glyph-name="Oslash" unicode="Ø" horiz-adv-x="778" d="M616 664c-64 55-145 74-229 74-285 0-347-230-347-387 0-85 16-171 65-240L2 0l48-47L150 61c65-56 151-79 238-79 195 0 345 123 345 383 0 89-18 177-71 249l95 104-47 47-94-101zM218 235c-5 16-15 50-15 121 0 41 6 124 30 178 32 65 91 96 154 96 23 0 90-4 136-66L218 235zm337 264c12-40 16-83 16-126 0-152-43-278-183-278-94 0-126 51-140 71l307 333z"/><glyph glyph-name="Ugrave" unicode="Ù" horiz-adv-x="778" d="M72 721V289c0-68 2-122 37-178C178 2 308-14 381-14c147 0 317 68 317 284v451H547V289c0-73-8-100-23-123-40-62-115-63-140-63-151 0-157 98-157 178v440H72zm306 197H238l139-145h85l-84 145z"/><glyph glyph-name="Uacute" unicode="Ú" horiz-adv-x="778" d="M72 721V289c0-68 2-122 37-178C178 2 308-14 381-14c147 0 317 68 317 284v451H547V289c0-73-8-100-23-123-40-62-115-63-140-63-151 0-157 98-157 178v440H72zm467 197H405l-83-145h80l137 145z"/><glyph glyph-name="Ucircumflex" unicode="Û" horiz-adv-x="778" d="M72 721V289c0-68 2-122 37-178C178 2 308-14 381-14c147 0 317 68 317 284v451H547V289c0-73-8-100-23-123-40-62-115-63-140-63-151 0-157 98-157 178v440H72zm156 52h90l70 85 68-85h89L441 918H338L228 773z"/><glyph glyph-name="Udieresis" unicode="Ü" horiz-adv-x="778" d="M72 721V289c0-68 2-122 37-178C178 2 308-14 381-14c147 0 317 68 317 284v451H547V289c0-73-8-100-23-123-40-62-115-63-140-63-151 0-157 98-157 178v440H72zm350 56h102v118H422V777zm-172 0h102v118H250V777z"/><glyph glyph-name="Yacute" unicode="Ý" horiz-adv-x="667" d="M16 720l244-455V0h153v263l244 457H498L346 391 197 720H16zm468 198H350l-83-145h80l137 145z"/><glyph glyph-name="Thorn" unicode="Þ" horiz-adv-x="611" d="M65 0h157v170h98c43 0 123-1 171 34 63 43 92 114 92 190 0 68-20 115-56 151-58 61-144 66-239 66h-70v110H65V0zm153 493h78c42 0 127 0 127-97 0-32-12-75-49-96-25-16-71-15-94-15h-62v208z"/><glyph glyph-name="germandbls" unicode="ß" horiz-adv-x="667" d="M59 0h145v525c0 19 0 55 19 82 9 11 34 43 89 43 51 0 77-29 77-62 0-28-17-45-40-64-63-52-75-87-75-126 0-55 29-76 82-108l78-47c47-28 57-57 57-89 0-51-31-71-56-71-13 0-27 4-36 15-11 11-16 26-16 46H252C263-8 367-16 429-16c60 0 201 9 201 182 0 94-49 129-91 152l-78 47c-43 24-47 37-47 52 0 27 16 36 31 47 75 48 92 82 92 128 0 109-123 150-232 150-56 0-112-6-160-34-16-8-86-53-86-169V0z"/><glyph glyph-name="agrave" unicode="à" horiz-adv-x="556" d="M502 0c-9 43-12 85-12 128l-1 203c0 23 0 84-35 124-51 59-137 65-180 65-48 0-106-8-153-41-52-37-57-93-57-119h145c0 12 0 28 11 45 13 19 35 28 56 28 14 0 53-6 66-42 7-19 7-34 7-67-48 0-139 1-200-28C56 253 42 179 42 139S55 59 86 28c20-19 53-40 126-40 29 0 95 1 151 81 0-15 0-38 5-69h134zM349 238c0-55-1-93-28-125-15-16-36-29-63-29-49 0-72 37-72 72 0 60 67 90 163 82zm-82 492H127l139-145h85l-84 145z"/><glyph glyph-name="aacute" unicode="á" horiz-adv-x="556" d="M502 0c-9 43-12 85-12 128l-1 203c0 23 0 84-35 124-51 59-137 65-180 65-48 0-106-8-153-41-52-37-57-93-57-119h145c0 12 0 28 11 45 13 19 35 28 56 28 14 0 53-6 66-42 7-19 7-34 7-67-48 0-139 1-200-28C56 253 42 179 42 139S55 59 86 28c20-19 53-40 126-40 29 0 95 1 151 81 0-15 0-38 5-69h134zM349 238c0-55-1-93-28-125-15-16-36-29-63-29-49 0-72 37-72 72 0 60 67 90 163 82zm79 492H294l-83-145h80l137 145z"/><glyph glyph-name="acircumflex" unicode="â" horiz-adv-x="556" d="M502 0c-9 43-12 85-12 128l-1 203c0 23 0 84-35 124-51 59-137 65-180 65-48 0-106-8-153-41-52-37-57-93-57-119h145c0 12 0 28 11 45 13 19 35 28 56 28 14 0 53-6 66-42 7-19 7-34 7-67-48 0-139 1-200-28C56 253 42 179 42 139S55 59 86 28c20-19 53-40 126-40 29 0 95 1 151 81 0-15 0-38 5-69h134zM349 238c0-55-1-93-28-125-15-16-36-29-63-29-49 0-72 37-72 72 0 60 67 90 163 82zM117 585h90l70 85 68-85h89L330 730H227L117 585z"/><glyph glyph-name="atilde" unicode="ã" horiz-adv-x="556" d="M502 0c-9 43-12 85-12 128l-1 203c0 23 0 84-35 124-51 59-137 65-180 65-48 0-106-8-153-41-52-37-57-93-57-119h145c0 12 0 28 11 45 13 19 35 28 56 28 14 0 53-6 66-42 7-19 7-34 7-67-48 0-139 1-200-28C56 253 42 179 42 139S55 59 86 28c20-19 53-40 126-40 29 0 95 1 151 81 0-15 0-38 5-69h134zM349 238c0-55-1-93-28-125-15-16-36-29-63-29-49 0-72 37-72 72 0 60 67 90 163 82zM149 593c13 39 36 45 53 45 13 0 33-6 45-10l43-16c11-4 29-11 52-11 35 0 57 14 72 29 28 27 36 57 40 93h-51c-5-25-18-46-47-46-17 0-27 3-34 6l-57 22c-3 1-29 11-50 11-60 0-107-48-118-123h52z"/><glyph glyph-name="adieresis" unicode="ä" horiz-adv-x="556" d="M502 0c-9 43-12 85-12 128l-1 203c0 23 0 84-35 124-51 59-137 65-180 65-48 0-106-8-153-41-52-37-57-93-57-119h145c0 12 0 28 11 45 13 19 35 28 56 28 14 0 53-6 66-42 7-19 7-34 7-67-48 0-139 1-200-28C56 253 42 179 42 139S55 59 86 28c20-19 53-40 126-40 29 0 95 1 151 81 0-15 0-38 5-69h134zM349 238c0-55-1-93-28-125-15-16-36-29-63-29-49 0-72 37-72 72 0 60 67 90 163 82zm-38 361h102v118H311V599zm-172 0h102v118H139V599z"/><glyph glyph-name="aring" unicode="å" horiz-adv-x="556" d="M502 0c-9 43-12 85-12 128l-1 203c0 23 0 84-35 124-51 59-137 65-180 65-48 0-106-8-153-41-52-37-57-93-57-119h145c0 12 0 28 11 45 13 19 35 28 56 28 14 0 53-6 66-42 7-19 7-34 7-67-48 0-139 1-200-28C56 253 42 179 42 139S55 59 86 28c20-19 53-40 126-40 29 0 95 1 151 81 0-15 0-38 5-69h134zM349 238c0-55-1-93-28-125-15-16-36-29-63-29-49 0-72 37-72 72 0 60 67 90 163 82zm-71 522c-56 0-101-46-101-102 0-57 46-102 101-102 56 0 101 46 101 102s-42 102-101 102zm0-48c31 0 54-25 54-54s-23-53-54-53c-29 0-53 24-53 53 0 31 24 54 53 54z"/><glyph glyph-name="ae" unicode="æ" horiz-adv-x="889" d="M699 156c-5-24-18-76-83-76-31 0-67 13-86 52-17 35-17 80-17 99h338c0 40 2 127-38 191-39 63-104 98-187 98-112 0-157-55-178-79-18 23-65 79-180 79-106 0-192-40-203-157h143c3 55 43 71 78 71 68 0 87-52 84-117-80 0-180-1-244-33-80-40-88-115-88-145 0-91 63-158 194-158 114 0 167 54 202 97 15-23 61-93 193-93 64 0 128 18 168 66 35 41 40 81 43 105H699zM512 317c3 25 10 115 99 115 86 0 87-89 87-115H512zm-143-86c-3-31-5-71-20-102-20-40-62-53-90-53-39 0-78 25-78 70 0 87 116 87 144 87 16 0 29 1 44-2z"/><glyph glyph-name="ccedilla" unicode="ç" horiz-adv-x="500" d="M334 183c-5-90-53-97-68-97-11 0-25 2-40 17-34 36-37 128-37 155 0 55 9 161 78 161 57 0 62-74 65-93h145c0 136-113 189-206 189-67 0-236-32-236-262 0-84 21-150 64-199C150-2 211-9 238-12l-53-76 21-21c9 4 21 9 40 9 35 0 45-22 45-37 0-23-21-38-56-38-21 0-46 7-70 18l-21-42c13-7 50-22 97-22 46 0 126 18 126 91 0 27-16 72-83 72-17 0-25-1-36-4l36 49c39 3 84 8 131 47 59 48 62 109 65 149H334z"/><glyph glyph-name="egrave" unicode="è" horiz-adv-x="556" d="M523 215c3 42 4 117-30 185-45 93-132 122-204 122-56 0-103-15-142-42C62 421 42 324 42 241c0-81 18-149 65-197 52-55 135-63 178-63 75 0 140 20 177 59 41 43 45 86 48 110H375c-15-56-51-70-88-70-103 0-103 102-103 135h339zm-334 93c3 59 31 113 95 113 86 0 88-90 88-113H189zm78 422H127l139-145h85l-84 145z"/><glyph glyph-name="eacute" unicode="é" horiz-adv-x="556" d="M523 215c3 42 4 117-30 185-45 93-132 122-204 122-56 0-103-15-142-42C62 421 42 324 42 241c0-81 18-149 65-197 52-55 135-63 178-63 75 0 140 20 177 59 41 43 45 86 48 110H375c-15-56-51-70-88-70-103 0-103 102-103 135h339zm-334 93c3 59 31 113 95 113 86 0 88-90 88-113H189zm239 422H294l-83-145h80l137 145z"/><glyph glyph-name="ecircumflex" unicode="ê" horiz-adv-x="556" d="M523 215c3 42 4 117-30 185-45 93-132 122-204 122-56 0-103-15-142-42C62 421 42 324 42 241c0-81 18-149 65-197 52-55 135-63 178-63 75 0 140 20 177 59 41 43 45 86 48 110H375c-15-56-51-70-88-70-103 0-103 102-103 135h339zm-334 93c3 59 31 113 95 113 86 0 88-90 88-113H189zm-72 277h90l70 85 68-85h89L330 730H227L117 585z"/><glyph glyph-name="edieresis" unicode="ë" horiz-adv-x="556" d="M523 215c3 42 4 117-30 185-45 93-132 122-204 122-56 0-103-15-142-42C62 421 42 324 42 241c0-81 18-149 65-197 52-55 135-63 178-63 75 0 140 20 177 59 41 43 45 86 48 110H375c-15-56-51-70-88-70-103 0-103 102-103 135h339zm-334 93c3 59 31 113 95 113 86 0 88-90 88-113H189zm122 291h102v118H311V599zm-172 0h102v118H139V599z"/><glyph glyph-name="igrave" unicode="ì" horiz-adv-x="278" d="M65 0h148v506H65V0zm63 730H-12l139-145h85l-84 145z"/><glyph glyph-name="iacute" unicode="í" horiz-adv-x="278" d="M65 0h148v506H65V0zm224 730H155L72 585h80l137 145z"/><glyph glyph-name="icircumflex" unicode="î" horiz-adv-x="278" d="M65 0h148v506H65V0zm-87 585h90l70 85 68-85h89L191 730H88L-22 585z"/><glyph glyph-name="idieresis" unicode="ï" horiz-adv-x="278" d="M65 0h148v506H65V0zm107 599h102v118H172V599zM0 599h102v118H0V599z"/><glyph glyph-name="eth" unicode="ð" horiz-adv-x="611" d="M124 564l44-34 92 63c89-59 123-106 152-154-18 15-60 46-132 46-95 0-232-62-232-249 0-80 24-157 88-204 51-39 115-46 168-46 186 0 260 127 260 292 0 226-129 331-201 385l76 51-44 34-79-54c-19 11-46 28-125 63l-79-90c48-19 71-31 98-44l-86-59zM309 81c-88 0-111 78-111 155 0 29-1 164 111 164 99 0 108-103 108-154 0-69-14-165-108-165z"/><glyph glyph-name="ntilde" unicode="ñ" horiz-adv-x="611" d="M67 0h149v296c0 39 9 64 18 77 16 24 45 39 77 39 39 0 61-20 72-43 8-16 8-34 8-55V0h151v273c0 95-3 119-14 151-13 35-54 95-154 95-109 0-151-65-164-88l-4 76H64c3-36 3-89 3-92V0zm110 593c13 39 36 45 53 45 13 0 33-6 45-10l43-16c11-4 29-11 52-11 35 0 57 14 72 29 28 27 36 57 40 93h-51c-5-25-18-46-47-46-17 0-27 3-34 6l-57 22c-3 1-29 11-50 11-60 0-107-48-118-123h52z"/><glyph glyph-name="ograve" unicode="ò" horiz-adv-x="611" d="M42 248C42 71 156-18 300-18c184 0 265 128 265 270 0 141-78 265-262 265-199 0-261-147-261-269zm152-1c0 46 1 171 109 171 99 0 111-93 111-160 0-134-44-173-109-173-73 0-111 49-111 162zm101 483H155l139-145h85l-84 145z"/><glyph glyph-name="oacute" unicode="ó" horiz-adv-x="611" d="M42 248C42 71 156-18 300-18c184 0 265 128 265 270 0 141-78 265-262 265-199 0-261-147-261-269zm152-1c0 46 1 171 109 171 99 0 111-93 111-160 0-134-44-173-109-173-73 0-111 49-111 162zm262 483H322l-83-145h80l137 145z"/><glyph glyph-name="ocircumflex" unicode="ô" horiz-adv-x="611" d="M42 248C42 71 156-18 300-18c184 0 265 128 265 270 0 141-78 265-262 265-199 0-261-147-261-269zm152-1c0 46 1 171 109 171 99 0 111-93 111-160 0-134-44-173-109-173-73 0-111 49-111 162zm-49 338h90l70 85 68-85h89L358 730H255L145 585z"/><glyph glyph-name="otilde" unicode="õ" horiz-adv-x="611" d="M42 248C42 71 156-18 300-18c184 0 265 128 265 270 0 141-78 265-262 265-199 0-261-147-261-269zm152-1c0 46 1 171 109 171 99 0 111-93 111-160 0-134-44-173-109-173-73 0-111 49-111 162zm-17 346c13 39 36 45 53 45 13 0 33-6 45-10l43-16c11-4 29-11 52-11 35 0 57 14 72 29 28 27 36 57 40 93h-51c-5-25-18-46-47-46-17 0-27 3-34 6l-57 22c-3 1-29 11-50 11-60 0-107-48-118-123h52z"/><glyph glyph-name="odieresis" unicode="ö" horiz-adv-x="611" d="M42 248C42 71 156-18 300-18c184 0 265 128 265 270 0 141-78 265-262 265-199 0-261-147-261-269zm152-1c0 46 1 171 109 171 99 0 111-93 111-160 0-134-44-173-109-173-73 0-111 49-111 162zm145 352h102v118H339V599zm-172 0h102v118H167V599z"/><glyph glyph-name="divide" unicode="÷" horiz-adv-x="584" d="M21 202h533v129H21V202zM213 4h149v147H213V4zm0 378h149v147H213V382z"/><glyph glyph-name="oslash" unicode="ø" horiz-adv-x="611" d="M540 547l-74-76c-48 33-106 45-165 45-161 0-260-105-260-269 0-92 31-138 48-163L9-2l41-34 75 78c24-21 66-58 178-58 180 0 260 120 260 267 0 111-38 158-57 183l75 78-41 35zM198 195c-3 13-4 32-4 59 0 36 1 164 109 164 10 0 49 0 79-33L198 195zm208 135c3-16 6-43 6-83 0-69-9-162-110-162-57 0-76 32-86 50l190 195z"/><glyph glyph-name="ugrave" unicode="ù" horiz-adv-x="611" d="M60 505V191c0-25 0-95 33-136 28-37 84-68 152-68 96 0 133 59 149 80l5-67h144c-3 15-3 22-4 37 0 14 0 25-3 135v333H384V250c0-85 0-157-95-157-80 0-79 67-79 111v301H60zm235 225H155l139-145h85l-84 145z"/><glyph glyph-name="uacute" unicode="ú" horiz-adv-x="611" d="M60 505V191c0-25 0-95 33-136 28-37 84-68 152-68 96 0 133 59 149 80l5-67h144c-3 15-3 22-4 37 0 14 0 25-3 135v333H384V250c0-85 0-157-95-157-80 0-79 67-79 111v301H60zm396 225H322l-83-145h80l137 145z"/><glyph glyph-name="ucircumflex" unicode="û" horiz-adv-x="611" d="M60 505V191c0-25 0-95 33-136 28-37 84-68 152-68 96 0 133 59 149 80l5-67h144c-3 15-3 22-4 37 0 14 0 25-3 135v333H384V250c0-85 0-157-95-157-80 0-79 67-79 111v301H60zm85 80h90l70 85 68-85h89L358 730H255L145 585z"/><glyph glyph-name="udieresis" unicode="ü" horiz-adv-x="611" d="M60 505V191c0-25 0-95 33-136 28-37 84-68 152-68 96 0 133 59 149 80l5-67h144c-3 15-3 22-4 37 0 14 0 25-3 135v333H384V250c0-85 0-157-95-157-80 0-79 67-79 111v301H60zm279 94h102v118H339V599zm-172 0h102v118H167V599z"/><glyph glyph-name="yacute" unicode="ý" horiz-adv-x="556" d="M14 505L208-2l-64-190h149L354 9l191 496H398L285 155 174 505H14zm414 225H294l-83-145h80l137 145z"/><glyph glyph-name="thorn" unicode="þ" horiz-adv-x="611" d="M42 723v-917h150V58c13-19 51-65 143-65 142 0 219 124 219 269 0 149-75 253-210 253-24 0-106-1-152-82v290H42zM296 90c-101 0-110 106-110 158 0 61 12 102 33 131 17 24 48 41 81 41 96 0 103-120 103-163 0-53-14-167-107-167z"/><glyph glyph-name="ydieresis" unicode="ÿ" horiz-adv-x="556" d="M14 505L208-2l-64-190h149L354 9l191 496H398L285 155 174 505H14zm297 94h102v118H311V599zm-172 0h102v118H139V599z"/><glyph glyph-name="dotlessi" unicode="ı" horiz-adv-x="278" d="M65 0h148v506H65V0z"/><glyph glyph-name="Lslash" unicode="Ł" horiz-adv-x="556" d="M69 0h468v123H227v255l175 101v104L227 481v241H69l1-330-67-40V251l66 38V0z"/><glyph glyph-name="lslash" unicode="ł" horiz-adv-x="278" d="M65 0h148v383l53 32v105l-53-33v236H65V397l-53-33V261l53 32V0z"/><glyph glyph-name="OE" unicode="Œ" horiz-adv-x="1000" d="M951 722H472c-109 0-149 0-225-21C105 661 32 517 32 353c0-55 10-181 92-261C218 1 338 0 472 0h491v120H655v190h287v116H656v180h295v116zM500 111c-144-3-308-7-308 238 0 105 29 204 106 239 47 24 91 26 202 26V111z"/><glyph glyph-name="oe" unicode="œ" horiz-adv-x="944" d="M760 156c-11-56-42-80-86-80-85 0-102 83-102 143h335c0 46 2 139-35 198-53 88-145 102-196 102-122 0-168-68-184-95-18 26-71 93-194 93-99 0-256-52-256-267 0-127 59-268 252-268 77 0 138 20 198 93 35-43 74-92 189-92 40 0 100 7 148 44 43 33 62 73 70 129H760zM572 311c8 79 46 115 101 115 86 0 87-79 87-115H572zM305 80c-76 0-113 53-113 170 0 88 23 171 114 171 116 0 116-118 116-161 0-72-8-180-117-180z"/><glyph glyph-name="Scaron" unicode="Š" horiz-adv-x="667" d="M35 231c0-71 4-248 280-248 200 0 308 105 308 235 0 141-123 176-248 205-104 27-157 37-157 105 0 60 47 98 119 98 108 0 114-85 117-110h149c0 25 0 83-41 134-53 68-144 85-218 85-201 0-286-105-286-224 0-125 94-176 266-219 92-21 137-34 137-97 0-61-53-101-137-101-132 0-131 102-131 137H35zm371 687l-70-91-70 91h-94l104-145h117l106 145h-93z"/><glyph glyph-name="scaron" unicode="š" horiz-adv-x="500" d="M29 146c1-24 4-64 37-99 47-48 108-62 173-62 157 0 232 87 232 174 0 69-43 116-135 141l-91 25c-44 12-69 18-69 53 0 31 30 50 70 50 22 0 69-4 72-60h135c-3 101-89 149-192 149-131 0-221-60-221-158 0-105 87-126 128-140l92-25c59-16 70-34 70-57 0-31-25-60-78-60-62 0-81 37-84 69H29zm293 584l-70-91-70 91H88l104-145h117l106 145h-93z"/><glyph glyph-name="Ydieresis" unicode="Ÿ" horiz-adv-x="667" d="M16 720l244-455V0h153v263l244 457H498L346 391 197 720H16zm351 57h102v118H367V777zm-172 0h102v118H195V777z"/><glyph glyph-name="Zcaron" unicode="Ž" horiz-adv-x="611" d="M27 0h554v119l-385-6 377 470v137H50V602l355 3L27 132V0zm351 918l-70-91-70 91h-94l104-145h117l106 145h-93z"/><glyph glyph-name="zcaron" unicode="ž" horiz-adv-x="500" d="M32 0h431v102H197l256 276v127H39v-99h249L32 130V0zm290 730l-70-91-70 91H88l104-145h117l106 145h-93z"/><glyph glyph-name="florin" unicode="ƒ" horiz-adv-x="556" d="M30-155c31-5 53-5 60-5 60 0 95 17 116 32 36 24 44 64 52 103l75 375h76l15 101h-72l11 54c10 52 16 89 90 78l22 110c-27 4-51 7-82 7-122 0-148-72-172-192l-11-57h-66l-19-101h65L121 0c-4-21-11-44-51-44-7 0-12 1-19 2L30-155z"/><glyph glyph-name="circumflex" unicode="ˆ" horiz-adv-x="278" d="M-22 585h90l70 85 68-85h89L191 730H88L-22 585z"/><glyph glyph-name="caron" unicode="ˇ" horiz-adv-x="278" d="M211 730l-70-91-70 91h-94L81 585h117l106 145h-93z"/><glyph glyph-name="uni02C9" unicode="ˉ" horiz-adv-x="278" d="M306 624v68H-36v-68h342z"/><glyph glyph-name="breve" unicode="˘" horiz-adv-x="278" d="M-14 730c1-23 2-58 27-90 27-36 71-55 122-55 99 0 150 66 155 145h-61c-8-27-21-80-93-80-32 0-78 13-89 80h-61z"/><glyph glyph-name="dotaccent" unicode="˙" horiz-adv-x="278" d="M88 599h102v118H88V599z"/><glyph glyph-name="ring" unicode="˚" horiz-adv-x="278" d="M139 760c-56 0-101-46-101-102 0-57 46-102 101-102 56 0 101 46 101 102s-42 102-101 102zm0-48c31 0 54-25 54-54s-23-53-54-53c-29 0-53 24-53 53 0 31 24 54 53 54z"/><glyph glyph-name="ogonek" unicode="˛" horiz-adv-x="278" d="M232-147c-11-7-21-12-41-12-8 0-61 1-61 62 0 44 32 69 75 98h-43C94-30 43-82 43-142c0-43 33-75 96-75 47 0 74 15 93 26v44z"/><glyph glyph-name="tilde" unicode="˜" horiz-adv-x="278" d="M10 593c13 39 36 45 53 45 13 0 33-6 45-10l43-16c11-4 29-11 52-11 35 0 57 14 72 29 28 27 36 57 40 93h-51c-5-25-18-46-47-46-17 0-27 3-34 6l-57 22c-3 1-29 11-50 11-60 0-107-48-118-123h52z"/><glyph glyph-name="hungarumlaut" unicode="˝" horiz-adv-x="556" d="M336 730H202l-84-145h80l138 145zm185 0H387l-84-145h80l138 145z"/><glyph glyph-name="uni03A9" unicode="Ω" horiz-adv-x="703" d="M170 106H36V0h265v78c-62 38-118 137-118 280 0 136 67 237 170 237 108 0 165-109 165-232 0-158-58-246-118-285V0h264v106H529v3c61 56 122 156 122 283 0 144-102 312-297 312-181 0-304-146-304-319 0-127 61-219 120-276v-3z"/><glyph glyph-name="uni03BC" unicode="μ" horiz-adv-x="611" d="M70-212h126V41c13-18 39-50 101-50 68 0 98 45 114 69V0h110v505H392V258c0-68-3-160-98-160-87 0-95 70-95 163v244H71l-1-717z"/><glyph glyph-name="pi" unicode="π" horiz-adv-x="601" d="M578 410l10 111H169c-88 0-140-14-165-34l14-87c23 7 50 10 97 10-3-108-29-293-61-410h127c35 105 58 303 63 410h133V142c0-69 5-121 17-142h127c-7 31-13 76-13 148v262h70z"/><glyph glyph-name="endash" unicode="–" horiz-adv-x="500" d="M0 213h500v97H0v-97z"/><glyph glyph-name="emdash" unicode="—" horiz-adv-x="1000" d="M130 213h740v97H130v-97z"/><glyph glyph-name="quoteleft" unicode="‘" horiz-adv-x="278" d="M240 722H135L23 475h146l71 247z"/><glyph glyph-name="quoteright" unicode="’" horiz-adv-x="278" d="M39 475h105l112 247H110L39 475z"/><glyph glyph-name="quotesinglbase" unicode="‚" horiz-adv-x="278" d="M102 133L28-113h103l119 246H102z"/><glyph glyph-name="quotedblleft" unicode="“" horiz-adv-x="556" d="M280 722H176L64 475h145l71 247zm196 0H371L259 475h146l71 247z"/><glyph glyph-name="quotedblright" unicode="”" horiz-adv-x="556" d="M67 475h104l113 247H138L67 475zm196 0h104l112 247H333l-70-247z"/><glyph glyph-name="quotedblbase" unicode="„" horiz-adv-x="556" d="M171-113l111 246H139L68-113h103zm199 0l111 246H338l-71-246h103z"/><glyph glyph-name="dagger" unicode="†" horiz-adv-x="556" d="M214 465V0h122v465h157v100H336v157H214V565H53V465h161z"/><glyph glyph-name="daggerdbl" unicode="‡" horiz-adv-x="556" d="M336 572v150H214V572H53v-97h161V250H56v-97h158V0h122v153h159v97H336v225h159v97H336z"/><glyph glyph-name="bullet" unicode="•" horiz-adv-x="350" d="M175 542C76 542-6 463-6 362c0-100 81-181 181-181s181 81 181 181c0 101-82 180-181 180z"/><glyph glyph-name="ellipsis" unicode="…" horiz-adv-x="1000" d="M117 0h127v133H117V0zm320 0h127v133H437V0zm320 0h127v133H757V0z"/><glyph glyph-name="perthousand" unicode="‰" horiz-adv-x="1000" d="M509 335c-108 0-139-77-139-174C370 68 403-9 511-9c137 0 140 124 140 184 0 97-39 160-142 160zm2-267c-36 0-41 34-41 89 0 58 3 102 43 102 36 0 41-41 41-94 0-69-10-97-43-97zm334 267c-108 0-139-77-139-174C706 68 740-9 848-9c137 0 140 124 140 184 0 97-40 160-143 160zm3-267c-36 0-42 34-42 89 0 59 4 102 43 102 37 0 41-41 41-94 0-69-9-97-42-97zM147 719C39 719 8 643 8 546c0-93 34-171 142-171 136 0 139 125 139 185 0 97-39 159-142 159zm3-267c-36 0-42 36-42 89 0 59 4 103 43 103 37 0 41-42 41-95 0-69-9-97-42-97zm1-468l425 743h-73L76-16h75z"/><glyph glyph-name="guilsinglleft" unicode="‹" horiz-adv-x="278" d="M126 56h132l-95 196 95 190H126L17 252 126 56z"/><glyph glyph-name="guilsinglright" unicode="›" horiz-adv-x="278" d="M10 442l95-197L10 56h132l109 189-109 197H10z"/><glyph glyph-name="fraction" unicode="⁄" horiz-adv-x="167" d="M-167-28h82l417 753h-82L-167-28z"/><glyph glyph-name="Euro" unicode="€" horiz-adv-x="556" d="M353 308H210c-1 17-1 34-1 50l1 15h155l17 90H217c17 91 54 137 109 137 47 0 84-48 88-131h127c0 156-102 232-215 232-133 0-214-89-242-238H24L6 373h69c0-9-1-18-1-29 0-12 0-24 1-36H24L6 218h79C109 82 183-13 320-13s222 89 222 237H413c-3-80-37-130-93-130-64 0-95 53-102 124h118l17 90z"/><glyph glyph-name="afii61289" unicode="ℓ" horiz-adv-x="514" d="M443 187c-27-45-74-90-126-90-48 0-83 36-86 104l-1 43c121 116 195 225 195 342 0 98-43 177-140 177-99 0-181-78-181-254V262c-25-24-52-44-81-68l32-69c17 12 35 27 51 39v-10C117 66 168-8 287-8c80 0 156 36 209 140l-53 55zM230 512c0 124 32 159 61 159 39 0 52-31 52-80 0-68-45-152-113-228v149z"/><glyph glyph-name="trademark" unicode="™" horiz-adv-x="1000" d="M445 362h69v310l93-310h62l94 310V362h74v361H719l-79-264-73 264H445V362zm-234 0h76v301h126v60H84v-60h127V362z"/><glyph glyph-name="Omega" unicode="Ω" horiz-adv-x="703" d="M170 106H36V0h265v78c-62 38-118 137-118 280 0 136 67 237 170 237 108 0 165-109 165-232 0-158-58-246-118-285V0h264v106H529v3c61 56 122 156 122 283 0 144-102 312-297 312-181 0-304-146-304-319 0-127 61-219 120-276v-3z"/><glyph glyph-name="estimated" unicode="℮" horiz-adv-x="867" d="M832 338v10c0 199-179 360-400 360-219 0-398-161-398-360C34 150 213-10 432-10c129 0 244 55 316 139h-57C627 57 537 10 433 10c-96 0-180 41-244 106-6 9-9 16-9 22v196c0 3 2 4 6 4h646zm-146 26c0-3-2-6-5-6H186c-4 0-6 3-6 6v192c0 10 3 18 10 25 64 64 148 105 243 105 96 0 179-39 243-102 7-7 10-14 10-23V364z"/><glyph glyph-name="partialdiff" unicode="∂" horiz-adv-x="573" d="M103 629c27 21 69 47 130 47 101 0 165-111 165-232v-33h-1c-16 25-64 78-145 78-119 0-215-100-215-260C37 123 104-7 245-7c177 0 281 165 281 413 0 250-129 378-276 378-93 0-153-34-184-58l37-97zm155-527c-56 0-92 54-92 122 0 85 45 161 112 161 60 0 100-52 108-81-11-93-54-202-127-202h-1z"/><glyph glyph-name="Delta" unicode="∆" horiz-adv-x="653" d="M26 0h600v77L408 708H252L26 76V0zm135 105l111 299c16 56 43 128 51 163h3c11-43 39-126 55-178l105-284H161z"/><glyph glyph-name="product" unicode="∏" horiz-adv-x="719" d="M694 575v118H24V575h101V-96h129v671h210V-96h129v671h101z"/><glyph glyph-name="summation" unicode="∑" horiz-adv-x="555" d="M537-96V25H184v3l223 292-201 259v3h314v111H32v-91l228-303L23-12v-84h514z"/><glyph glyph-name="minus" unicode="−" horiz-adv-x="584" d="M26 202h532v129H26V202z"/><glyph glyph-name="uni2215" unicode="∕" horiz-adv-x="167" d="M-167-28h82l417 753h-82L-167-28z"/><glyph glyph-name="uni2219" unicode="∙" horiz-adv-x="278" d="M74 213h127v133H74V213z"/><glyph glyph-name="radical" unicode="√" horiz-adv-x="591" d="M600 832h-90L342 102c-7-36-12-71-16-94h-1c-5 23-13 56-20 88L203 407 31 337l22-72 73 29 147-432h104l223 970z"/><glyph glyph-name="infinity" unicode="∞" horiz-adv-x="772" d="M725 287c0 99-68 165-155 165s-140-63-179-110c-51 67-105 110-178 110-95 0-166-70-166-171 0-100 75-169 157-169 80 0 132 49 183 113 67-88 121-113 178-113 81 0 160 65 160 173v2zM213 183c-53 0-93 44-93 97 0 60 34 103 90 103 63 0 99-50 139-106-37-45-79-94-134-94h-2zm350 200c55 0 89-43 89-103 0-43-30-97-85-97-50 0-82 27-140 101 31 36 75 99 135 99h1z"/><glyph glyph-name="integral" unicode="∫" horiz-adv-x="396" d="M374 846c-12 5-35 12-62 12-43 0-89-15-118-46-43-45-60-109-60-226 0-170 15-306 15-488 0-88-9-129-26-152-11-15-28-20-44-20-19 0-32 6-43 10l-16-92c15-8 46-16 78-16 51 0 103 20 130 73 23 40 36 104 36 199 0 178-15 312-15 474 0 83 6 139 26 166 13 19 31 25 50 25 15 0 26-4 35-8l14 89z"/><glyph glyph-name="approxequal" unicode="≈" horiz-adv-x="546" d="M461 450c-27-43-50-71-89-71-31 0-50 14-86 35-25 15-57 37-104 37-63 0-116-44-145-103l46-42c24 36 49 71 92 71 33 0 56-14 85-33 45-27 71-39 111-39 56 0 104 42 135 103l-45 42zm0-186c-28-43-50-72-89-72-32 0-55 18-86 37-25 15-56 35-105 35-61 0-115-43-144-102l46-42c25 36 48 72 93 72 31 0 53-15 84-34 44-27 71-40 111-40 57 0 104 43 135 103l-45 43z"/><glyph glyph-name="notequal" unicode="≠" horiz-adv-x="546" d="M402 510l-59 23-48-110H47v-75h220l-58-134H47v-74h133l-39-89 59-24 49 113h249v74H278l58 134h162v75H364l38 87z"/><glyph glyph-name="lessequal" unicode="≤" horiz-adv-x="546" d="M495 99v87L127 360v2l368 173v87L53 401v-81L495 99zm4-113v76H49v-76h450z"/><glyph glyph-name="greaterequal" unicode="≥" horiz-adv-x="546" d="M54 622v-87l368-173v-2L55 186V99l442 221v81L54 622zM497-14v76H49v-76h448z"/><glyph glyph-name="lozenge" unicode="◊" horiz-adv-x="590" d="M542 346L350 741H246L49 346 240-49h104l198 395zm-115-3L314 110c-5-11-14-40-17-55h-5c-3 13-9 37-16 57L164 348l111 228c9 20 15 40 19 60h4c3-19 11-41 18-60l111-233z"/><glyph glyph-name="fi" unicode="ﬁ" horiz-adv-x="611" d="M78 0h147v400h93v105h-93v59c0 27-1 66 75 66 12 0 16 0 31-3v103c-41 5-69 5-80 5-144 0-173-72-173-161v-69H2V400h76V0zm315 593h158v129H393V593zm5-593h148v506H398V0z"/><glyph glyph-name="fl" unicode="ﬂ" horiz-adv-x="611" d="M80 0h147v400h94v105h-94v59c0 27 0 66 76 66 12 0 15 0 30-3v103c-41 5-68 5-79 5-144 0-174-72-174-161v-69H5V400h75V0zm318 0h148v723H398V0z"/></font>
</svg>
